<svg xmlns="http://www.w3.org/2000/svg" width="1800" height="714" viewBox="0 0 1800 714"><rect width="1800" height="714" fill="#0b0b0b"/><rect x="42" y="42" width="1716" height="630" rx="28" fill="#121212" stroke="#2b2b2b" stroke-width="2"/><rect x="42" y="42" width="1716" height="142" rx="28" fill="#132321"/><text x="74" y="88" font-family="Arial, Apple SD Gothic Neo, Noto Sans KR, sans-serif" font-size="24" font-weight="950" fill="#5ed7cf" text-anchor="start"><tspan x="74" dy="0">BLOCK 2</tspan></text><text x="74" y="137" font-family="Arial, Apple SD Gothic Neo, Noto Sans KR, sans-serif" font-size="48" font-weight="950" fill="#ffffff" text-anchor="start"><tspan x="74" dy="0">아파트 거실</tspan></text><text x="74" y="174" font-family="Arial, Apple SD Gothic Neo, Noto Sans KR, sans-serif" font-size="22" font-weight="800" fill="#a3a3a3" text-anchor="start"><tspan x="74" dy="0">삼각대 고정 후, 인서트 먼저 다 찍고 메인 동선 트래킹.</tspan></text><rect x="1428" y="80" width="290" height="54" rx="27" fill="rgba(94,215,207,0.10)" stroke="rgba(94,215,207,0.45)" stroke-width="2"/><text x="1573" y="115" font-family="Arial, Apple SD Gothic Neo, Noto Sans KR, sans-serif" font-size="19" font-weight="950" fill="#5ed7cf" text-anchor="middle"><tspan x="1573" dy="0">동일 앵글 인서트 몰아 찍기</tspan></text><rect x="42" y="202" width="1716" height="252" fill="#171717" stroke="#2b2b2b" stroke-width="2"/><rect x="70" y="228" width="554" height="156" rx="18" fill="#fbfbfb" stroke="#e5e5e5" stroke-width="3"/><rect x="86" y="244" width="522" height="124" rx="8" fill="none" stroke="#111" stroke-width="3"/><rect x="140" y="298" width="160" height="94" rx="0" fill="none" stroke="#111" stroke-width="4"/><circle cx="220" cy="346" r="28" fill="none" stroke="#111" stroke-width="4"/><line x1="220" y1="318" x2="220" y2="346" stroke="#111" stroke-width="4" stroke-linecap="round"/><line x1="220" y1="346" x2="247" y2="346" stroke="#111" stroke-width="4" stroke-linecap="round"/><rect x="350" y="300" width="185" height="110" rx="0" fill="none" stroke="#111" stroke-width="4"/><line x1="370" y1="328" x2="515" y2="328" stroke="#111" stroke-width="4" stroke-linecap="round"/><line x1="370" y1="356" x2="505" y2="356" stroke="#111" stroke-width="4" stroke-linecap="round"/><line x1="370" y1="384" x2="480" y2="384" stroke="#111" stroke-width="4" stroke-linecap="round"/><line x1="190" y1="438" x2="290" y2="413" stroke="#111" stroke-width="4" stroke-linecap="round"/><line x1="258" y1="420" x2="300" y2="442" stroke="#111" stroke-width="4" stroke-linecap="round"/><text x="70" y="420" font-family="Arial, Apple SD Gothic Neo, Noto Sans KR, sans-serif" font-size="20" font-weight="950" fill="#f4f4f5" text-anchor="start"><tspan x="70" dy="0">알람 손 / 매뉴얼 눈빛 / 탑뷰</tspan></text><text x="70" y="446" font-family="Arial, Apple SD Gothic Neo, Noto Sans KR, sans-serif" font-size="14" font-weight="950" fill="#737373" text-anchor="start"><tspan x="70" dy="0">STORYBOARD FRAME</tspan></text><rect x="676" y="202" width="170" height="252" fill="transparent" stroke="#2b2b2b" stroke-width="2"/><text x="698" y="244" font-family="Arial, Apple SD Gothic Neo, Noto Sans KR, sans-serif" font-size="16" font-weight="950" fill="#737373" text-anchor="start"><tspan x="698" dy="0">시간</tspan></text><text x="698" y="288" font-family="Arial, Apple SD Gothic Neo, Noto Sans KR, sans-serif" font-size="27" font-weight="900" fill="#5ed7cf" text-anchor="start"><tspan x="698" dy="0">09:00 - 09:40</tspan><tspan x="698" dy="36">40분</tspan></text><rect x="846" y="202" width="235" height="252" fill="transparent" stroke="#2b2b2b" stroke-width="2"/><text x="868" y="244" font-family="Arial, Apple SD Gothic Neo, Noto Sans KR, sans-serif" font-size="16" font-weight="950" fill="#737373" text-anchor="start"><tspan x="868" dy="0">S# 및 컷</tspan></text><text x="868" y="288" font-family="Arial, Apple SD Gothic Neo, Noto Sans KR, sans-serif" font-size="21" font-weight="900" fill="#f4f4f5" text-anchor="start"><tspan x="868" dy="0">S# 2C, 2F, 2H /</tspan><tspan x="868" dy="31">S# 2J, 2L, 2N /</tspan><tspan x="868" dy="31">S# 13A</tspan></text><rect x="1081" y="202" width="280" height="252" fill="transparent" stroke="#2b2b2b" stroke-width="2"/><text x="1103" y="244" font-family="Arial, Apple SD Gothic Neo, Noto Sans KR, sans-serif" font-size="16" font-weight="950" fill="#737373" text-anchor="start"><tspan x="1103" dy="0">렌즈 및 앵글</tspan></text><text x="1103" y="288" font-family="Arial, Apple SD Gothic Neo, Noto Sans KR, sans-serif" font-size="21" font-weight="900" fill="#f4f4f5" text-anchor="start"><tspan x="1103" dy="0">70-200mm / 픽스 /</tspan><tspan x="1103" dy="31">CS·High</tspan></text><rect x="1361" y="202" width="397" height="252" fill="transparent" stroke="#2b2b2b" stroke-width="2"/><text x="1383" y="244" font-family="Arial, Apple SD Gothic Neo, Noto Sans KR, sans-serif" font-size="16" font-weight="950" fill="#737373" text-anchor="start"><tspan x="1383" dy="0">내용 및 연출 포인트</tspan></text><text x="1383" y="288" font-family="Arial, Apple SD Gothic Neo, Noto Sans KR, sans-serif" font-size="22" font-weight="900" fill="#f4f4f5" text-anchor="start"><tspan x="1383" dy="0">인서트 몰아찍기. 카메라 고정 후 시간대만 바꿔 알람 끄는 손</tspan><tspan x="1383" dy="31">반복 촬영. 매뉴얼 확인하는 눈빛.</tspan></text><rect x="42" y="454" width="1716" height="252" fill="#101010" stroke="#2b2b2b" stroke-width="2"/><rect x="70" y="480" width="554" height="156" rx="18" fill="#fbfbfb" stroke="#e5e5e5" stroke-width="3"/><rect x="86" y="496" width="522" height="124" rx="8" fill="none" stroke="#111" stroke-width="3"/><line x1="104" y1="582" x2="590" y2="582" stroke="#999" stroke-width="3" stroke-linecap="round"/><rect x="140" y="560" width="105" height="105" rx="0" fill="none" stroke="#111" stroke-width="4"/><rect x="430" y="560" width="105" height="105" rx="0" fill="none" stroke="#111" stroke-width="4"/><circle cx="300" cy="636.96" r="9.36" fill="#fff" stroke="#111" stroke-width="2.88"/><line x1="300" y1="647.04" x2="315.84" y2="674.4" stroke="#111" stroke-width="4" stroke-linecap="round"/><line x1="315.84" y1="674.4" x2="332.4" y2="684.48" stroke="#111" stroke-width="4" stroke-linecap="round"/><line x1="308.64" y1="667.2" x2="287.04" y2="685.2" stroke="#111" stroke-width="4" stroke-linecap="round"/><line x1="314.4" y1="680.16" x2="301.44" y2="708.96" stroke="#111" stroke-width="4" stroke-linecap="round"/><line x1="314.4" y1="680.16" x2="337.44" y2="703.2" stroke="#111" stroke-width="4" stroke-linecap="round"/><circle cx="570" cy="634.96" r="9.36" fill="#fff" stroke="#111" stroke-width="2.88"/><line x1="570" y1="645.04" x2="570" y2="681.04" stroke="#111" stroke-width="2.88" stroke-linecap="round"/><line x1="570" y1="658" x2="552.72" y2="672.4" stroke="#111" stroke-width="4" stroke-linecap="round"/><line x1="570" y1="658" x2="587.28" y2="672.4" stroke="#111" stroke-width="4" stroke-linecap="round"/><line x1="570" y1="681.04" x2="557.04" y2="706.96" stroke="#111" stroke-width="4" stroke-linecap="round"/><line x1="570" y1="681.04" x2="582.96" y2="706.96" stroke="#111" stroke-width="4" stroke-linecap="round"/><line x1="322" y1="558" x2="372" y2="558" stroke="#111" stroke-width="5" stroke-linecap="round"/><line x1="357" y1="542" x2="375" y2="558" stroke="#111" stroke-width="4" stroke-linecap="round"/><line x1="357" y1="574" x2="375" y2="558" stroke="#111" stroke-width="4" stroke-linecap="round"/><text x="70" y="672" font-family="Arial, Apple SD Gothic Neo, Noto Sans KR, sans-serif" font-size="20" font-weight="950" fill="#f4f4f5" text-anchor="start"><tspan x="70" dy="0">Day1 허겁지겁 vs Day2 여유</tspan></text><text x="70" y="698" font-family="Arial, Apple SD Gothic Neo, Noto Sans KR, sans-serif" font-size="14" font-weight="950" fill="#737373" text-anchor="start"><tspan x="70" dy="0">STORYBOARD FRAME</tspan></text><rect x="676" y="454" width="170" height="252" fill="transparent" stroke="#2b2b2b" stroke-width="2"/><text x="698" y="496" font-family="Arial, Apple SD Gothic Neo, Noto Sans KR, sans-serif" font-size="16" font-weight="950" fill="#737373" text-anchor="start"><tspan x="698" dy="0">시간</tspan></text><text x="698" y="540" font-family="Arial, Apple SD Gothic Neo, Noto Sans KR, sans-serif" font-size="27" font-weight="900" fill="#5ed7cf" text-anchor="start"><tspan x="698" dy="0">09:40 - 11:30</tspan><tspan x="698" dy="36">110분</tspan></text><rect x="846" y="454" width="235" height="252" fill="transparent" stroke="#2b2b2b" stroke-width="2"/><text x="868" y="496" font-family="Arial, Apple SD Gothic Neo, Noto Sans KR, sans-serif" font-size="16" font-weight="950" fill="#737373" text-anchor="start"><tspan x="868" dy="0">S# 및 컷</tspan></text><text x="868" y="540" font-family="Arial, Apple SD Gothic Neo, Noto Sans KR, sans-serif" font-size="21" font-weight="900" fill="#f4f4f5" text-anchor="start"><tspan x="868" dy="0">S# 2B, 2D, 2E /</tspan><tspan x="868" dy="31">S# 2G, 2I, 2K,</tspan><tspan x="868" dy="31">2M / S# 13B-13F</tspan><tspan x="868" dy="31">/ S# 1E</tspan></text><rect x="1081" y="454" width="280" height="252" fill="transparent" stroke="#2b2b2b" stroke-width="2"/><text x="1103" y="496" font-family="Arial, Apple SD Gothic Neo, Noto Sans KR, sans-serif" font-size="16" font-weight="950" fill="#737373" text-anchor="start"><tspan x="1103" dy="0">렌즈 및 앵글</tspan></text><text x="1103" y="540" font-family="Arial, Apple SD Gothic Neo, Noto Sans KR, sans-serif" font-size="21" font-weight="900" fill="#f4f4f5" text-anchor="start"><tspan x="1103" dy="0">24-70mm / 픽스·트래킹 /</tspan><tspan x="1103" dy="31">MS·MCU</tspan></text><rect x="1361" y="454" width="397" height="252" fill="transparent" stroke="#2b2b2b" stroke-width="2"/><text x="1383" y="496" font-family="Arial, Apple SD Gothic Neo, Noto Sans KR, sans-serif" font-size="16" font-weight="950" fill="#737373" text-anchor="start"><tspan x="1383" dy="0">내용 및 연출 포인트</tspan></text><text x="1383" y="540" font-family="Arial, Apple SD Gothic Neo, Noto Sans KR, sans-serif" font-size="22" font-weight="900" fill="#f4f4f5" text-anchor="start"><tspan x="1383" dy="0">허겁지겁 먹는 1일 차와 여유로운 2일 차 대비. 냉장고, 식탁,</tspan><tspan x="1383" dy="31">양치, 옷입기 지정 위치 몰아찍기.</tspan></text></svg>