<svg xmlns="http://www.w3.org/2000/svg" width="1800" height="1218" viewBox="0 0 1800 1218"><rect width="1800" height="1218" fill="#0b0b0b"/><rect x="42" y="42" width="1716" height="1134" rx="28" fill="#121212" stroke="#2b2b2b" stroke-width="2"/><rect x="42" y="42" width="1716" height="142" rx="28" fill="#132321"/><text x="74" y="88" font-family="Arial, Apple SD Gothic Neo, Noto Sans KR, sans-serif" font-size="24" font-weight="950" fill="#5ed7cf" text-anchor="start"><tspan x="74" dy="0">BLOCK 4</tspan></text><text x="74" y="137" font-family="Arial, Apple SD Gothic Neo, Noto Sans KR, sans-serif" font-size="48" font-weight="950" fill="#ffffff" text-anchor="start"><tspan x="74" dy="0">늦은 오후 거리</tspan></text><text x="74" y="174" font-family="Arial, Apple SD Gothic Neo, Noto Sans KR, sans-serif" font-size="22" font-weight="800" fill="#a3a3a3" text-anchor="start"><tspan x="74" dy="0">골든아워 빛 활용. 망원으로 압축감 살리고, 표준으로 넓은 횡단보도 샷.</tspan></text><rect x="1428" y="80" width="290" height="54" rx="27" fill="rgba(94,215,207,0.10)" stroke="rgba(94,215,207,0.45)" stroke-width="2"/><text x="1573" y="115" font-family="Arial, Apple SD Gothic Neo, Noto Sans KR, sans-serif" font-size="19" font-weight="950" fill="#5ed7cf" text-anchor="middle"><tspan x="1573" dy="0">망원 타이트 샷 먼저</tspan></text><rect x="42" y="202" width="1716" height="252" fill="#171717" stroke="#2b2b2b" stroke-width="2"/><rect x="70" y="228" width="554" height="156" rx="18" fill="#fbfbfb" stroke="#e5e5e5" stroke-width="3"/><rect x="86" y="244" width="522" height="124" rx="8" fill="none" stroke="#111" stroke-width="3"/><line x1="104" y1="330" x2="590" y2="330" stroke="#999" stroke-width="3" stroke-linecap="round"/><rect x="140" y="408" width="56" height="28" rx="0" fill="#fff" stroke="#111" stroke-width="3"/><rect x="228" y="408" width="56" height="28" rx="0" fill="#fff" stroke="#111" stroke-width="3"/><rect x="316" y="408" width="56" height="28" rx="0" fill="#fff" stroke="#111" stroke-width="3"/><rect x="404" y="408" width="56" height="28" rx="0" fill="#fff" stroke="#111" stroke-width="3"/><rect x="492" y="408" width="56" height="28" rx="0" fill="#fff" stroke="#111" stroke-width="3"/><circle cx="545" cy="308" r="17" fill="none" stroke="#111" stroke-width="4"/><circle cx="545" cy="353" r="17" fill="none" stroke="#111" stroke-width="4"/><text x="347" y="330" font-family="Arial, Apple SD Gothic Neo, Noto Sans KR, sans-serif" font-size="42" font-weight="950" fill="#111" text-anchor="middle"><tspan x="347" dy="0">SETUP</tspan></text><text x="70" y="420" font-family="Arial, Apple SD Gothic Neo, Noto Sans KR, sans-serif" font-size="20" font-weight="950" fill="#f4f4f5" text-anchor="start"><tspan x="70" dy="0">거리 / 횡단보도 SETUP</tspan></text><text x="70" y="446" font-family="Arial, Apple SD Gothic Neo, Noto Sans KR, sans-serif" font-size="14" font-weight="950" fill="#737373" text-anchor="start"><tspan x="70" dy="0">STORYBOARD FRAME</tspan></text><rect x="676" y="202" width="170" height="252" fill="transparent" stroke="#2b2b2b" stroke-width="2"/><text x="698" y="244" font-family="Arial, Apple SD Gothic Neo, Noto Sans KR, sans-serif" font-size="16" font-weight="950" fill="#737373" text-anchor="start"><tspan x="698" dy="0">시간</tspan></text><text x="698" y="288" font-family="Arial, Apple SD Gothic Neo, Noto Sans KR, sans-serif" font-size="27" font-weight="900" fill="#5ed7cf" text-anchor="start"><tspan x="698" dy="0">14:30 - 14:50</tspan><tspan x="698" dy="36">20분</tspan></text><rect x="846" y="202" width="235" height="252" fill="transparent" stroke="#2b2b2b" stroke-width="2"/><text x="868" y="244" font-family="Arial, Apple SD Gothic Neo, Noto Sans KR, sans-serif" font-size="16" font-weight="950" fill="#737373" text-anchor="start"><tspan x="868" dy="0">S# 및 컷</tspan></text><text x="868" y="288" font-family="Arial, Apple SD Gothic Neo, Noto Sans KR, sans-serif" font-size="21" font-weight="900" fill="#f4f4f5" text-anchor="start"><tspan x="868" dy="0">현장 세팅</tspan></text><rect x="1081" y="202" width="280" height="252" fill="transparent" stroke="#2b2b2b" stroke-width="2"/><text x="1103" y="244" font-family="Arial, Apple SD Gothic Neo, Noto Sans KR, sans-serif" font-size="16" font-weight="950" fill="#737373" text-anchor="start"><tspan x="1103" dy="0">렌즈 및 앵글</tspan></text><text x="1103" y="288" font-family="Arial, Apple SD Gothic Neo, Noto Sans KR, sans-serif" font-size="21" font-weight="900" fill="#f4f4f5" text-anchor="start"><tspan x="1103" dy="0">-</tspan></text><rect x="1361" y="202" width="397" height="252" fill="transparent" stroke="#2b2b2b" stroke-width="2"/><text x="1383" y="244" font-family="Arial, Apple SD Gothic Neo, Noto Sans KR, sans-serif" font-size="16" font-weight="950" fill="#737373" text-anchor="start"><tspan x="1383" dy="0">내용 및 연출 포인트</tspan></text><text x="1383" y="288" font-family="Arial, Apple SD Gothic Neo, Noto Sans KR, sans-serif" font-size="22" font-weight="900" fill="#f4f4f5" text-anchor="start"><tspan x="1383" dy="0">횡단보도 근처 자리 잡고 동선 체크.</tspan></text><rect x="42" y="454" width="1716" height="252" fill="#101010" stroke="#2b2b2b" stroke-width="2"/><rect x="70" y="480" width="554" height="156" rx="18" fill="#fbfbfb" stroke="#e5e5e5" stroke-width="3"/><rect x="86" y="496" width="522" height="124" rx="8" fill="none" stroke="#111" stroke-width="3"/><rect x="140" y="680" width="56" height="30" rx="0" fill="#fff" stroke="#111" stroke-width="3"/><rect x="228" y="680" width="56" height="30" rx="0" fill="#fff" stroke="#111" stroke-width="3"/><rect x="316" y="680" width="56" height="30" rx="0" fill="#fff" stroke="#111" stroke-width="3"/><rect x="404" y="680" width="56" height="30" rx="0" fill="#fff" stroke="#111" stroke-width="3"/><rect x="492" y="680" width="56" height="30" rx="0" fill="#fff" stroke="#111" stroke-width="3"/><circle cx="347" cy="623.2" r="11.700000000000001" fill="#fff" stroke="#111" stroke-width="3.6"/><line x1="347" y1="635.8" x2="347" y2="680.8" stroke="#111" stroke-width="3.6" stroke-linecap="round"/><line x1="347" y1="652" x2="321.8" y2="662.8" stroke="#111" stroke-width="4" stroke-linecap="round"/><line x1="347" y1="652" x2="375.8" y2="644.8" stroke="#111" stroke-width="4" stroke-linecap="round"/><line x1="347" y1="680.8" x2="325.4" y2="710.5" stroke="#111" stroke-width="4" stroke-linecap="round"/><line x1="347" y1="680.8" x2="379.4" y2="698.8" stroke="#111" stroke-width="4" stroke-linecap="round"/><circle cx="545" cy="560" r="17" fill="#fff" stroke="#111" stroke-width="4"/><circle cx="545" cy="605" r="17" fill="#111" stroke="#111" stroke-width="4"/><text x="545" y="657" font-family="Arial, Apple SD Gothic Neo, Noto Sans KR, sans-serif" font-size="34" font-weight="950" fill="#111" text-anchor="middle"><tspan x="545" dy="0">09</tspan></text><text x="70" y="672" font-family="Arial, Apple SD Gothic Neo, Noto Sans KR, sans-serif" font-size="20" font-weight="950" fill="#f4f4f5" text-anchor="start"><tspan x="70" dy="0">신호 직전 통과 / 시계 줌인</tspan></text><text x="70" y="698" font-family="Arial, Apple SD Gothic Neo, Noto Sans KR, sans-serif" font-size="14" font-weight="950" fill="#737373" text-anchor="start"><tspan x="70" dy="0">STORYBOARD FRAME</tspan></text><rect x="676" y="454" width="170" height="252" fill="transparent" stroke="#2b2b2b" stroke-width="2"/><text x="698" y="496" font-family="Arial, Apple SD Gothic Neo, Noto Sans KR, sans-serif" font-size="16" font-weight="950" fill="#737373" text-anchor="start"><tspan x="698" dy="0">시간</tspan></text><text x="698" y="540" font-family="Arial, Apple SD Gothic Neo, Noto Sans KR, sans-serif" font-size="27" font-weight="900" fill="#5ed7cf" text-anchor="start"><tspan x="698" dy="0">14:50 - 16:10</tspan><tspan x="698" dy="36">80분</tspan></text><rect x="846" y="454" width="235" height="252" fill="transparent" stroke="#2b2b2b" stroke-width="2"/><text x="868" y="496" font-family="Arial, Apple SD Gothic Neo, Noto Sans KR, sans-serif" font-size="16" font-weight="950" fill="#737373" text-anchor="start"><tspan x="868" dy="0">S# 및 컷</tspan></text><text x="868" y="540" font-family="Arial, Apple SD Gothic Neo, Noto Sans KR, sans-serif" font-size="21" font-weight="900" fill="#f4f4f5" text-anchor="start"><tspan x="868" dy="0">S# 8C, 8D</tspan></text><rect x="1081" y="454" width="280" height="252" fill="transparent" stroke="#2b2b2b" stroke-width="2"/><text x="1103" y="496" font-family="Arial, Apple SD Gothic Neo, Noto Sans KR, sans-serif" font-size="16" font-weight="950" fill="#737373" text-anchor="start"><tspan x="1103" dy="0">렌즈 및 앵글</tspan></text><text x="1103" y="540" font-family="Arial, Apple SD Gothic Neo, Noto Sans KR, sans-serif" font-size="21" font-weight="900" fill="#f4f4f5" text-anchor="start"><tspan x="1103" dy="0">70-200mm / 픽스·트래킹</tspan><tspan x="1103" dy="31">/ Low·High</tspan></text><rect x="1361" y="454" width="397" height="252" fill="transparent" stroke="#2b2b2b" stroke-width="2"/><text x="1383" y="496" font-family="Arial, Apple SD Gothic Neo, Noto Sans KR, sans-serif" font-size="16" font-weight="950" fill="#737373" text-anchor="start"><tspan x="1383" dy="0">내용 및 연출 포인트</tspan></text><text x="1383" y="540" font-family="Arial, Apple SD Gothic Neo, Noto Sans KR, sans-serif" font-size="22" font-weight="900" fill="#f4f4f5" text-anchor="start"><tspan x="1383" dy="0">횡단보도 건너는 순간을 타이트하게 잡기. 배경 아웃포커싱으로</tspan><tspan x="1383" dy="31">인물의 조급함 강조.</tspan></text><rect x="42" y="706" width="1716" height="252" fill="#171717" stroke="#2b2b2b" stroke-width="2"/><rect x="70" y="732" width="554" height="156" rx="18" fill="#fbfbfb" stroke="#e5e5e5" stroke-width="3"/><rect x="86" y="748" width="522" height="124" rx="8" fill="none" stroke="#111" stroke-width="3"/><line x1="104" y1="834" x2="590" y2="834" stroke="#999" stroke-width="3" stroke-linecap="round"/><line x1="130" y1="822" x2="564" y2="822" stroke="#aaa" stroke-width="4" stroke-linecap="round"/><circle cx="506" cy="808" r="32" fill="#fff" stroke="#111" stroke-width="4"/><circle cx="307" cy="880.4" r="10.4" fill="#fff" stroke="#111" stroke-width="3.2"/><line x1="307" y1="891.6" x2="307" y2="931.6" stroke="#111" stroke-width="3.2" stroke-linecap="round"/><line x1="307" y1="906" x2="287.8" y2="922" stroke="#111" stroke-width="4" stroke-linecap="round"/><line x1="307" y1="906" x2="326.2" y2="922" stroke="#111" stroke-width="4" stroke-linecap="round"/><line x1="307" y1="931.6" x2="292.6" y2="960.4" stroke="#111" stroke-width="4" stroke-linecap="round"/><line x1="307" y1="931.6" x2="321.4" y2="960.4" stroke="#111" stroke-width="4" stroke-linecap="round"/><line x1="182" y1="922" x2="537" y2="922" stroke="#888" stroke-width="3" stroke-linecap="round"/><text x="148" y="818" font-family="Arial, Apple SD Gothic Neo, Noto Sans KR, sans-serif" font-size="32" font-weight="950" fill="#111" text-anchor="start"><tspan x="148" dy="0">WS</tspan></text><text x="70" y="924" font-family="Arial, Apple SD Gothic Neo, Noto Sans KR, sans-serif" font-size="20" font-weight="950" fill="#f4f4f5" text-anchor="start"><tspan x="70" dy="0">풀샷 질주 / 하늘 응시</tspan></text><text x="70" y="950" font-family="Arial, Apple SD Gothic Neo, Noto Sans KR, sans-serif" font-size="14" font-weight="950" fill="#737373" text-anchor="start"><tspan x="70" dy="0">STORYBOARD FRAME</tspan></text><rect x="676" y="706" width="170" height="252" fill="transparent" stroke="#2b2b2b" stroke-width="2"/><text x="698" y="748" font-family="Arial, Apple SD Gothic Neo, Noto Sans KR, sans-serif" font-size="16" font-weight="950" fill="#737373" text-anchor="start"><tspan x="698" dy="0">시간</tspan></text><text x="698" y="792" font-family="Arial, Apple SD Gothic Neo, Noto Sans KR, sans-serif" font-size="27" font-weight="900" fill="#5ed7cf" text-anchor="start"><tspan x="698" dy="0">16:10 - 17:30</tspan><tspan x="698" dy="36">80분</tspan></text><rect x="846" y="706" width="235" height="252" fill="transparent" stroke="#2b2b2b" stroke-width="2"/><text x="868" y="748" font-family="Arial, Apple SD Gothic Neo, Noto Sans KR, sans-serif" font-size="16" font-weight="950" fill="#737373" text-anchor="start"><tspan x="868" dy="0">S# 및 컷</tspan></text><text x="868" y="792" font-family="Arial, Apple SD Gothic Neo, Noto Sans KR, sans-serif" font-size="21" font-weight="900" fill="#f4f4f5" text-anchor="start"><tspan x="868" dy="0">S# 8A, 8B / S#</tspan><tspan x="868" dy="31">18A, 18B</tspan></text><rect x="1081" y="706" width="280" height="252" fill="transparent" stroke="#2b2b2b" stroke-width="2"/><text x="1103" y="748" font-family="Arial, Apple SD Gothic Neo, Noto Sans KR, sans-serif" font-size="16" font-weight="950" fill="#737373" text-anchor="start"><tspan x="1103" dy="0">렌즈 및 앵글</tspan></text><text x="1103" y="792" font-family="Arial, Apple SD Gothic Neo, Noto Sans KR, sans-serif" font-size="21" font-weight="900" fill="#f4f4f5" text-anchor="start"><tspan x="1103" dy="0">24-70mm / 트래킹·픽스 /</tspan><tspan x="1103" dy="31">WS·MS</tspan></text><rect x="1361" y="706" width="397" height="252" fill="transparent" stroke="#2b2b2b" stroke-width="2"/><text x="1383" y="748" font-family="Arial, Apple SD Gothic Neo, Noto Sans KR, sans-serif" font-size="16" font-weight="950" fill="#737373" text-anchor="start"><tspan x="1383" dy="0">내용 및 연출 포인트</tspan></text><text x="1383" y="792" font-family="Arial, Apple SD Gothic Neo, Noto Sans KR, sans-serif" font-size="22" font-weight="900" fill="#f4f4f5" text-anchor="start"><tspan x="1383" dy="0">횡단보도를 향해 뛰는 전체 그림. 거리 한가운데 서서 10초간</tspan><tspan x="1383" dy="31">하늘 보는 씬.</tspan></text><rect x="42" y="958" width="1716" height="252" fill="#101010" stroke="#2b2b2b" stroke-width="2"/><rect x="70" y="984" width="554" height="156" rx="18" fill="#fbfbfb" stroke="#e5e5e5" stroke-width="3"/><rect x="86" y="1000" width="522" height="124" rx="8" fill="none" stroke="#111" stroke-width="3"/><rect x="145" y="1044" width="150" height="160" rx="0" fill="none" stroke="#111" stroke-width="4"/><line x1="145" y1="1094" x2="295" y2="1094" stroke="#111" stroke-width="3" stroke-linecap="round"/><line x1="220" y1="1044" x2="220" y2="1204" stroke="#111" stroke-width="3" stroke-linecap="round"/><circle cx="454" cy="1104" r="36" fill="none" stroke="#111" stroke-width="4"/><line x1="454" y1="1140" x2="454" y2="1224" stroke="#111" stroke-width="4" stroke-linecap="round"/><text x="347" y="1228" font-family="Arial, Apple SD Gothic Neo, Noto Sans KR, sans-serif" font-size="36" font-weight="950" fill="#111" text-anchor="middle"><tspan x="347" dy="0">NIGHT</tspan></text><text x="70" y="1176" font-family="Arial, Apple SD Gothic Neo, Noto Sans KR, sans-serif" font-size="20" font-weight="950" fill="#f4f4f5" text-anchor="start"><tspan x="70" dy="0">저녁 식사 / 야간 침실 세팅</tspan></text><text x="70" y="1202" font-family="Arial, Apple SD Gothic Neo, Noto Sans KR, sans-serif" font-size="14" font-weight="950" fill="#737373" text-anchor="start"><tspan x="70" dy="0">STORYBOARD FRAME</tspan></text><rect x="676" y="958" width="170" height="252" fill="transparent" stroke="#2b2b2b" stroke-width="2"/><text x="698" y="1000" font-family="Arial, Apple SD Gothic Neo, Noto Sans KR, sans-serif" font-size="16" font-weight="950" fill="#737373" text-anchor="start"><tspan x="698" dy="0">시간</tspan></text><text x="698" y="1044" font-family="Arial, Apple SD Gothic Neo, Noto Sans KR, sans-serif" font-size="27" font-weight="900" fill="#5ed7cf" text-anchor="start"><tspan x="698" dy="0">17:30 - 18:30</tspan><tspan x="698" dy="36">60분</tspan></text><rect x="846" y="958" width="235" height="252" fill="transparent" stroke="#2b2b2b" stroke-width="2"/><text x="868" y="1000" font-family="Arial, Apple SD Gothic Neo, Noto Sans KR, sans-serif" font-size="16" font-weight="950" fill="#737373" text-anchor="start"><tspan x="868" dy="0">S# 및 컷</tspan></text><text x="868" y="1044" font-family="Arial, Apple SD Gothic Neo, Noto Sans KR, sans-serif" font-size="21" font-weight="900" fill="#f4f4f5" text-anchor="start"><tspan x="868" dy="0">저녁 / 세팅</tspan></text><rect x="1081" y="958" width="280" height="252" fill="transparent" stroke="#2b2b2b" stroke-width="2"/><text x="1103" y="1000" font-family="Arial, Apple SD Gothic Neo, Noto Sans KR, sans-serif" font-size="16" font-weight="950" fill="#737373" text-anchor="start"><tspan x="1103" dy="0">렌즈 및 앵글</tspan></text><text x="1103" y="1044" font-family="Arial, Apple SD Gothic Neo, Noto Sans KR, sans-serif" font-size="21" font-weight="900" fill="#f4f4f5" text-anchor="start"><tspan x="1103" dy="0">-</tspan></text><rect x="1361" y="958" width="397" height="252" fill="transparent" stroke="#2b2b2b" stroke-width="2"/><text x="1383" y="1000" font-family="Arial, Apple SD Gothic Neo, Noto Sans KR, sans-serif" font-size="16" font-weight="950" fill="#737373" text-anchor="start"><tspan x="1383" dy="0">내용 및 연출 포인트</tspan></text><text x="1383" y="1044" font-family="Arial, Apple SD Gothic Neo, Noto Sans KR, sans-serif" font-size="22" font-weight="900" fill="#f4f4f5" text-anchor="start"><tspan x="1383" dy="0">저녁 식사 및 야간 침실 완벽 통제 세팅.</tspan></text></svg>