<svg xmlns="http://www.w3.org/2000/svg" width="1800" height="1218" viewBox="0 0 1800 1218"><rect width="1800" height="1218" fill="#0b0b0b"/><rect x="42" y="42" width="1716" height="1134" rx="28" fill="#121212" stroke="#2b2b2b" stroke-width="2"/><rect x="42" y="42" width="1716" height="142" rx="28" fill="#132321"/><text x="74" y="88" font-family="Arial, Apple SD Gothic Neo, Noto Sans KR, sans-serif" font-size="24" font-weight="950" fill="#5ed7cf" text-anchor="start"><tspan x="74" dy="0">BLOCK 1</tspan></text><text x="74" y="137" font-family="Arial, Apple SD Gothic Neo, Noto Sans KR, sans-serif" font-size="48" font-weight="950" fill="#ffffff" text-anchor="start"><tspan x="74" dy="0">이른 아침 거리</tspan></text><text x="74" y="174" font-family="Arial, Apple SD Gothic Neo, Noto Sans KR, sans-serif" font-size="22" font-weight="800" fill="#a3a3a3" text-anchor="start"><tspan x="74" dy="0">해 뜬 직후의 빛 활용. 광각/표준 짐벌 샷 먼저 밀고, 망원으로 마무리.</tspan></text><rect x="1428" y="80" width="290" height="54" rx="27" fill="rgba(94,215,207,0.10)" stroke="rgba(94,215,207,0.45)" stroke-width="2"/><text x="1573" y="115" font-family="Arial, Apple SD Gothic Neo, Noto Sans KR, sans-serif" font-size="19" font-weight="950" fill="#5ed7cf" text-anchor="middle"><tspan x="1573" dy="0">자연광 / 무빙 중심</tspan></text><rect x="42" y="202" width="1716" height="252" fill="#171717" stroke="#2b2b2b" stroke-width="2"/><rect x="70" y="228" width="554" height="156" rx="18" fill="#fbfbfb" stroke="#e5e5e5" stroke-width="3"/><rect x="86" y="244" width="522" height="124" rx="8" fill="none" stroke="#111" stroke-width="3"/><line x1="104" y1="330" x2="590" y2="330" stroke="#999" stroke-width="3" stroke-linecap="round"/><rect x="135" y="298" width="80" height="62" rx="0" fill="none" stroke="#111" stroke-width="4"/><circle cx="250" cy="330" r="25" fill="none" stroke="#111" stroke-width="4"/><line x1="275" y1="330" x2="355" y2="298" stroke="#111" stroke-width="4" stroke-linecap="round"/><line x1="355" y1="298" x2="390" y2="348" stroke="#111" stroke-width="4" stroke-linecap="round"/><text x="347" y="314" font-family="Arial, Apple SD Gothic Neo, Noto Sans KR, sans-serif" font-size="46" font-weight="950" fill="#111" text-anchor="middle"><tspan x="347" dy="0">SETUP</tspan></text><text x="70" y="420" font-family="Arial, Apple SD Gothic Neo, Noto Sans KR, sans-serif" font-size="20" font-weight="950" fill="#f4f4f5" text-anchor="start"><tspan x="70" dy="0">거리 / 횡단보도 SETUP</tspan></text><text x="70" y="446" font-family="Arial, Apple SD Gothic Neo, Noto Sans KR, sans-serif" font-size="14" font-weight="950" fill="#737373" text-anchor="start"><tspan x="70" dy="0">STORYBOARD FRAME</tspan></text><rect x="676" y="202" width="170" height="252" fill="transparent" stroke="#2b2b2b" stroke-width="2"/><text x="698" y="244" font-family="Arial, Apple SD Gothic Neo, Noto Sans KR, sans-serif" font-size="16" font-weight="950" fill="#737373" text-anchor="start"><tspan x="698" dy="0">시간</tspan></text><text x="698" y="288" font-family="Arial, Apple SD Gothic Neo, Noto Sans KR, sans-serif" font-size="27" font-weight="900" fill="#5ed7cf" text-anchor="start"><tspan x="698" dy="0">07:00 - 07:15</tspan><tspan x="698" dy="36">15분</tspan></text><rect x="846" y="202" width="235" height="252" fill="transparent" stroke="#2b2b2b" stroke-width="2"/><text x="868" y="244" font-family="Arial, Apple SD Gothic Neo, Noto Sans KR, sans-serif" font-size="16" font-weight="950" fill="#737373" text-anchor="start"><tspan x="868" dy="0">S# 및 컷</tspan></text><text x="868" y="288" font-family="Arial, Apple SD Gothic Neo, Noto Sans KR, sans-serif" font-size="21" font-weight="900" fill="#f4f4f5" text-anchor="start"><tspan x="868" dy="0">현장 세팅</tspan></text><rect x="1081" y="202" width="280" height="252" fill="transparent" stroke="#2b2b2b" stroke-width="2"/><text x="1103" y="244" font-family="Arial, Apple SD Gothic Neo, Noto Sans KR, sans-serif" font-size="16" font-weight="950" fill="#737373" text-anchor="start"><tspan x="1103" dy="0">렌즈 및 앵글</tspan></text><text x="1103" y="288" font-family="Arial, Apple SD Gothic Neo, Noto Sans KR, sans-serif" font-size="21" font-weight="900" fill="#f4f4f5" text-anchor="start"><tspan x="1103" dy="0">-</tspan></text><rect x="1361" y="202" width="397" height="252" fill="transparent" stroke="#2b2b2b" stroke-width="2"/><text x="1383" y="244" font-family="Arial, Apple SD Gothic Neo, Noto Sans KR, sans-serif" font-size="16" font-weight="950" fill="#737373" text-anchor="start"><tspan x="1383" dy="0">내용 및 연출 포인트</tspan></text><text x="1383" y="288" font-family="Arial, Apple SD Gothic Neo, Noto Sans KR, sans-serif" font-size="22" font-weight="900" fill="#f4f4f5" text-anchor="start"><tspan x="1383" dy="0">스태프 집결 및 카메라/짐벌 세팅</tspan></text><rect x="42" y="454" width="1716" height="252" fill="#101010" stroke="#2b2b2b" stroke-width="2"/><rect x="70" y="480" width="554" height="156" rx="18" fill="#fbfbfb" stroke="#e5e5e5" stroke-width="3"/><rect x="86" y="496" width="522" height="124" rx="8" fill="none" stroke="#111" stroke-width="3"/><line x1="104" y1="582" x2="590" y2="582" stroke="#999" stroke-width="3" stroke-linecap="round"/><circle cx="160" cy="620.16" r="8.06" fill="#fff" stroke="#111" stroke-width="2.48"/><line x1="160" y1="628.84" x2="160" y2="659.84" stroke="#111" stroke-width="2.48" stroke-linecap="round"/><line x1="160" y1="640" x2="145.12" y2="652.4" stroke="#111" stroke-width="4" stroke-linecap="round"/><line x1="160" y1="640" x2="174.88" y2="652.4" stroke="#111" stroke-width="4" stroke-linecap="round"/><line x1="160" y1="659.84" x2="148.84" y2="682.16" stroke="#111" stroke-width="4" stroke-linecap="round"/><line x1="160" y1="659.84" x2="171.16" y2="682.16" stroke="#111" stroke-width="4" stroke-linecap="round"/><circle cx="248" cy="620.16" r="8.06" fill="#fff" stroke="#111" stroke-width="2.48"/><line x1="248" y1="628.84" x2="248" y2="659.84" stroke="#111" stroke-width="2.48" stroke-linecap="round"/><line x1="248" y1="640" x2="233.12" y2="652.4" stroke="#111" stroke-width="4" stroke-linecap="round"/><line x1="248" y1="640" x2="262.88" y2="652.4" stroke="#111" stroke-width="4" stroke-linecap="round"/><line x1="248" y1="659.84" x2="236.84" y2="682.16" stroke="#111" stroke-width="4" stroke-linecap="round"/><line x1="248" y1="659.84" x2="259.16" y2="682.16" stroke="#111" stroke-width="4" stroke-linecap="round"/><circle cx="336" cy="620.16" r="8.06" fill="#fff" stroke="#111" stroke-width="2.48"/><line x1="336" y1="628.84" x2="336" y2="659.84" stroke="#111" stroke-width="2.48" stroke-linecap="round"/><line x1="336" y1="640" x2="321.12" y2="652.4" stroke="#111" stroke-width="4" stroke-linecap="round"/><line x1="336" y1="640" x2="350.88" y2="652.4" stroke="#111" stroke-width="4" stroke-linecap="round"/><line x1="336" y1="659.84" x2="324.84" y2="682.16" stroke="#111" stroke-width="4" stroke-linecap="round"/><line x1="336" y1="659.84" x2="347.16" y2="682.16" stroke="#111" stroke-width="4" stroke-linecap="round"/><circle cx="424" cy="620.16" r="8.06" fill="#fff" stroke="#111" stroke-width="2.48"/><line x1="424" y1="628.84" x2="424" y2="659.84" stroke="#111" stroke-width="2.48" stroke-linecap="round"/><line x1="424" y1="640" x2="409.12" y2="652.4" stroke="#111" stroke-width="4" stroke-linecap="round"/><line x1="424" y1="640" x2="438.88" y2="652.4" stroke="#111" stroke-width="4" stroke-linecap="round"/><line x1="424" y1="659.84" x2="412.84" y2="682.16" stroke="#111" stroke-width="4" stroke-linecap="round"/><line x1="424" y1="659.84" x2="435.16" y2="682.16" stroke="#111" stroke-width="4" stroke-linecap="round"/><circle cx="512" cy="620.16" r="8.06" fill="#fff" stroke="#111" stroke-width="2.48"/><line x1="512" y1="628.84" x2="512" y2="659.84" stroke="#111" stroke-width="2.48" stroke-linecap="round"/><line x1="512" y1="640" x2="497.12" y2="652.4" stroke="#111" stroke-width="4" stroke-linecap="round"/><line x1="512" y1="640" x2="526.88" y2="652.4" stroke="#111" stroke-width="4" stroke-linecap="round"/><line x1="512" y1="659.84" x2="500.84" y2="682.16" stroke="#111" stroke-width="4" stroke-linecap="round"/><line x1="512" y1="659.84" x2="523.16" y2="682.16" stroke="#111" stroke-width="4" stroke-linecap="round"/><circle cx="427" cy="618.8" r="11.049999999999999" fill="#fff" stroke="#111" stroke-width="3.4"/><line x1="427" y1="630.7" x2="427" y2="673.2" stroke="#111" stroke-width="3.4" stroke-linecap="round"/><line x1="427" y1="646" x2="403.2" y2="656.2" stroke="#111" stroke-width="4" stroke-linecap="round"/><line x1="427" y1="646" x2="454.2" y2="639.2" stroke="#111" stroke-width="4" stroke-linecap="round"/><line x1="427" y1="673.2" x2="406.6" y2="701.25" stroke="#111" stroke-width="4" stroke-linecap="round"/><line x1="427" y1="673.2" x2="457.6" y2="690.2" stroke="#111" stroke-width="4" stroke-linecap="round"/><line x1="362" y1="574" x2="287" y2="574" stroke="#555" stroke-width="5" stroke-linecap="round"/><line x1="367" y1="602" x2="261" y2="602" stroke="#555" stroke-width="4" stroke-linecap="round"/><text x="70" y="672" font-family="Arial, Apple SD Gothic Neo, Noto Sans KR, sans-serif" font-size="20" font-weight="950" fill="#f4f4f5" text-anchor="start"><tspan x="70" dy="0">군중 속 표류 / 달리기</tspan></text><text x="70" y="698" font-family="Arial, Apple SD Gothic Neo, Noto Sans KR, sans-serif" font-size="14" font-weight="950" fill="#737373" text-anchor="start"><tspan x="70" dy="0">STORYBOARD FRAME</tspan></text><rect x="676" y="454" width="170" height="252" fill="transparent" stroke="#2b2b2b" stroke-width="2"/><text x="698" y="496" font-family="Arial, Apple SD Gothic Neo, Noto Sans KR, sans-serif" font-size="16" font-weight="950" fill="#737373" text-anchor="start"><tspan x="698" dy="0">시간</tspan></text><text x="698" y="540" font-family="Arial, Apple SD Gothic Neo, Noto Sans KR, sans-serif" font-size="27" font-weight="900" fill="#5ed7cf" text-anchor="start"><tspan x="698" dy="0">07:15 - 08:00</tspan><tspan x="698" dy="36">45분</tspan></text><rect x="846" y="454" width="235" height="252" fill="transparent" stroke="#2b2b2b" stroke-width="2"/><text x="868" y="496" font-family="Arial, Apple SD Gothic Neo, Noto Sans KR, sans-serif" font-size="16" font-weight="950" fill="#737373" text-anchor="start"><tspan x="868" dy="0">S# 및 컷</tspan></text><text x="868" y="540" font-family="Arial, Apple SD Gothic Neo, Noto Sans KR, sans-serif" font-size="21" font-weight="900" fill="#f4f4f5" text-anchor="start"><tspan x="868" dy="0">S# 22A, 22B / S#</tspan><tspan x="868" dy="31">14A</tspan></text><rect x="1081" y="454" width="280" height="252" fill="transparent" stroke="#2b2b2b" stroke-width="2"/><text x="1103" y="496" font-family="Arial, Apple SD Gothic Neo, Noto Sans KR, sans-serif" font-size="16" font-weight="950" fill="#737373" text-anchor="start"><tspan x="1103" dy="0">렌즈 및 앵글</tspan></text><text x="1103" y="540" font-family="Arial, Apple SD Gothic Neo, Noto Sans KR, sans-serif" font-size="21" font-weight="900" fill="#f4f4f5" text-anchor="start"><tspan x="1103" dy="0">24-70mm / 핸드헬드·짐벌</tspan><tspan x="1103" dy="31">/ Low·Eye</tspan></text><rect x="1361" y="454" width="397" height="252" fill="transparent" stroke="#2b2b2b" stroke-width="2"/><text x="1383" y="496" font-family="Arial, Apple SD Gothic Neo, Noto Sans KR, sans-serif" font-size="16" font-weight="950" fill="#737373" text-anchor="start"><tspan x="1383" dy="0">내용 및 연출 포인트</tspan></text><text x="1383" y="540" font-family="Arial, Apple SD Gothic Neo, Noto Sans KR, sans-serif" font-size="22" font-weight="900" fill="#f4f4f5" text-anchor="start"><tspan x="1383" dy="0">매뉴얼 없이 당황하며 뛰는 동선. 사람들은 직진, 카이로스만</tspan><tspan x="1383" dy="31">방황. 핸드헬드 흔들림으로 불안감 강조.</tspan></text><rect x="42" y="706" width="1716" height="252" fill="#171717" stroke="#2b2b2b" stroke-width="2"/><rect x="70" y="732" width="554" height="156" rx="18" fill="#fbfbfb" stroke="#e5e5e5" stroke-width="3"/><rect x="86" y="748" width="522" height="124" rx="8" fill="none" stroke="#111" stroke-width="3"/><circle cx="329" cy="806" r="45" fill="none" stroke="#111" stroke-width="4"/><line x1="329" y1="852" x2="329" y2="920" stroke="#111" stroke-width="4" stroke-linecap="round"/><line x1="257" y1="814" x2="537" y2="814" stroke="#bbb" stroke-width="4" stroke-linecap="round"/><line x1="427" y1="780" x2="517" y2="780" stroke="#bbb" stroke-width="4" stroke-linecap="round"/><text x="542" y="846" font-family="Arial, Apple SD Gothic Neo, Noto Sans KR, sans-serif" font-size="34" font-weight="950" fill="#111" text-anchor="start"><tspan x="542" dy="0">CU</tspan></text><text x="70" y="924" font-family="Arial, Apple SD Gothic Neo, Noto Sans KR, sans-serif" font-size="20" font-weight="950" fill="#f4f4f5" text-anchor="start"><tspan x="70" dy="0">하늘 응시 CU / 배경 압축</tspan></text><text x="70" y="950" font-family="Arial, Apple SD Gothic Neo, Noto Sans KR, sans-serif" font-size="14" font-weight="950" fill="#737373" text-anchor="start"><tspan x="70" dy="0">STORYBOARD FRAME</tspan></text><rect x="676" y="706" width="170" height="252" fill="transparent" stroke="#2b2b2b" stroke-width="2"/><text x="698" y="748" font-family="Arial, Apple SD Gothic Neo, Noto Sans KR, sans-serif" font-size="16" font-weight="950" fill="#737373" text-anchor="start"><tspan x="698" dy="0">시간</tspan></text><text x="698" y="792" font-family="Arial, Apple SD Gothic Neo, Noto Sans KR, sans-serif" font-size="27" font-weight="900" fill="#5ed7cf" text-anchor="start"><tspan x="698" dy="0">08:00 - 08:30</tspan><tspan x="698" dy="36">30분</tspan></text><rect x="846" y="706" width="235" height="252" fill="transparent" stroke="#2b2b2b" stroke-width="2"/><text x="868" y="748" font-family="Arial, Apple SD Gothic Neo, Noto Sans KR, sans-serif" font-size="16" font-weight="950" fill="#737373" text-anchor="start"><tspan x="868" dy="0">S# 및 컷</tspan></text><text x="868" y="792" font-family="Arial, Apple SD Gothic Neo, Noto Sans KR, sans-serif" font-size="21" font-weight="900" fill="#f4f4f5" text-anchor="start"><tspan x="868" dy="0">S# 22C</tspan></text><rect x="1081" y="706" width="280" height="252" fill="transparent" stroke="#2b2b2b" stroke-width="2"/><text x="1103" y="748" font-family="Arial, Apple SD Gothic Neo, Noto Sans KR, sans-serif" font-size="16" font-weight="950" fill="#737373" text-anchor="start"><tspan x="1103" dy="0">렌즈 및 앵글</tspan></text><text x="1103" y="792" font-family="Arial, Apple SD Gothic Neo, Noto Sans KR, sans-serif" font-size="21" font-weight="900" fill="#f4f4f5" text-anchor="start"><tspan x="1103" dy="0">70-200mm / 삼각대 픽스</tspan><tspan x="1103" dy="31">/ Eye level</tspan></text><rect x="1361" y="706" width="397" height="252" fill="transparent" stroke="#2b2b2b" stroke-width="2"/><text x="1383" y="748" font-family="Arial, Apple SD Gothic Neo, Noto Sans KR, sans-serif" font-size="16" font-weight="950" fill="#737373" text-anchor="start"><tspan x="1383" dy="0">내용 및 연출 포인트</tspan></text><text x="1383" y="792" font-family="Arial, Apple SD Gothic Neo, Noto Sans KR, sans-serif" font-size="22" font-weight="900" fill="#f4f4f5" text-anchor="start"><tspan x="1383" dy="0">뛰다가 멈춰서 하늘을 보는 타이트 샷. 망원으로 군중 배경을</tspan><tspan x="1383" dy="31">날리고 인물에 집중.</tspan></text><rect x="42" y="958" width="1716" height="252" fill="#101010" stroke="#2b2b2b" stroke-width="2"/><rect x="70" y="984" width="554" height="156" rx="18" fill="#fbfbfb" stroke="#e5e5e5" stroke-width="3"/><rect x="86" y="1000" width="522" height="124" rx="8" fill="none" stroke="#111" stroke-width="3"/><line x1="104" y1="1086" x2="590" y2="1086" stroke="#999" stroke-width="3" stroke-linecap="round"/><rect x="160" y="1054" width="120" height="145" rx="0" fill="none" stroke="#111" stroke-width="4"/><rect x="310" y="1036" width="135" height="165" rx="0" fill="none" stroke="#111" stroke-width="4"/><line x1="190" y1="1226" x2="524" y2="1226" stroke="#111" stroke-width="5" stroke-linecap="round"/><line x1="494" y1="1206" x2="528" y2="1226" stroke="#111" stroke-width="4" stroke-linecap="round"/><line x1="494" y1="1246" x2="528" y2="1226" stroke="#111" stroke-width="4" stroke-linecap="round"/><text x="347" y="1116" font-family="Arial, Apple SD Gothic Neo, Noto Sans KR, sans-serif" font-size="42" font-weight="950" fill="#111" text-anchor="middle"><tspan x="347" dy="0">MOVE</tspan></text><text x="70" y="1176" font-family="Arial, Apple SD Gothic Neo, Noto Sans KR, sans-serif" font-size="20" font-weight="950" fill="#f4f4f5" text-anchor="start"><tspan x="70" dy="0">아파트 이동</tspan></text><text x="70" y="1202" font-family="Arial, Apple SD Gothic Neo, Noto Sans KR, sans-serif" font-size="14" font-weight="950" fill="#737373" text-anchor="start"><tspan x="70" dy="0">STORYBOARD FRAME</tspan></text><rect x="676" y="958" width="170" height="252" fill="transparent" stroke="#2b2b2b" stroke-width="2"/><text x="698" y="1000" font-family="Arial, Apple SD Gothic Neo, Noto Sans KR, sans-serif" font-size="16" font-weight="950" fill="#737373" text-anchor="start"><tspan x="698" dy="0">시간</tspan></text><text x="698" y="1044" font-family="Arial, Apple SD Gothic Neo, Noto Sans KR, sans-serif" font-size="27" font-weight="900" fill="#5ed7cf" text-anchor="start"><tspan x="698" dy="0">08:30 - 09:00</tspan><tspan x="698" dy="36">30분</tspan></text><rect x="846" y="958" width="235" height="252" fill="transparent" stroke="#2b2b2b" stroke-width="2"/><text x="868" y="1000" font-family="Arial, Apple SD Gothic Neo, Noto Sans KR, sans-serif" font-size="16" font-weight="950" fill="#737373" text-anchor="start"><tspan x="868" dy="0">S# 및 컷</tspan></text><text x="868" y="1044" font-family="Arial, Apple SD Gothic Neo, Noto Sans KR, sans-serif" font-size="21" font-weight="900" fill="#f4f4f5" text-anchor="start"><tspan x="868" dy="0">이동</tspan></text><rect x="1081" y="958" width="280" height="252" fill="transparent" stroke="#2b2b2b" stroke-width="2"/><text x="1103" y="1000" font-family="Arial, Apple SD Gothic Neo, Noto Sans KR, sans-serif" font-size="16" font-weight="950" fill="#737373" text-anchor="start"><tspan x="1103" dy="0">렌즈 및 앵글</tspan></text><text x="1103" y="1044" font-family="Arial, Apple SD Gothic Neo, Noto Sans KR, sans-serif" font-size="21" font-weight="900" fill="#f4f4f5" text-anchor="start"><tspan x="1103" dy="0">-</tspan></text><rect x="1361" y="958" width="397" height="252" fill="transparent" stroke="#2b2b2b" stroke-width="2"/><text x="1383" y="1000" font-family="Arial, Apple SD Gothic Neo, Noto Sans KR, sans-serif" font-size="16" font-weight="950" fill="#737373" text-anchor="start"><tspan x="1383" dy="0">내용 및 연출 포인트</tspan></text><text x="1383" y="1044" font-family="Arial, Apple SD Gothic Neo, Noto Sans KR, sans-serif" font-size="22" font-weight="900" fill="#f4f4f5" text-anchor="start"><tspan x="1383" dy="0">아파트로 이동 및 거실 픽스 세팅</tspan></text></svg>