<svg xmlns="http://www.w3.org/2000/svg" width="1800" height="1218" viewBox="0 0 1800 1218"><rect width="1800" height="1218" fill="#0b0b0b"/><rect x="42" y="42" width="1716" height="1134" rx="28" fill="#121212" stroke="#2b2b2b" stroke-width="2"/><rect x="42" y="42" width="1716" height="142" rx="28" fill="#132321"/><text x="74" y="88" font-family="Arial, Apple SD Gothic Neo, Noto Sans KR, sans-serif" font-size="24" font-weight="950" fill="#5ed7cf" text-anchor="start"><tspan x="74" dy="0">BLOCK 3</tspan></text><text x="74" y="137" font-family="Arial, Apple SD Gothic Neo, Noto Sans KR, sans-serif" font-size="48" font-weight="950" fill="#ffffff" text-anchor="start"><tspan x="74" dy="0">아파트 현관 및 계단</tspan></text><text x="74" y="174" font-family="Arial, Apple SD Gothic Neo, Noto Sans KR, sans-serif" font-size="22" font-weight="800" fill="#a3a3a3" text-anchor="start"><tspan x="74" dy="0">현관문 주변 씬 완벽 클리어. 계단은 12-24mm 광각으로 긴장감 극대화.</tspan></text><rect x="1428" y="80" width="290" height="54" rx="27" fill="rgba(94,215,207,0.10)" stroke="rgba(94,215,207,0.45)" stroke-width="2"/><text x="1573" y="115" font-family="Arial, Apple SD Gothic Neo, Noto Sans KR, sans-serif" font-size="19" font-weight="950" fill="#5ed7cf" text-anchor="middle"><tspan x="1573" dy="0">광각 왜곡 활용</tspan></text><rect x="42" y="202" width="1716" height="252" fill="#171717" stroke="#2b2b2b" stroke-width="2"/><rect x="70" y="228" width="554" height="156" rx="18" fill="#fbfbfb" stroke="#e5e5e5" stroke-width="3"/><rect x="86" y="244" width="522" height="124" rx="8" fill="none" stroke="#111" stroke-width="3"/><line x1="104" y1="330" x2="590" y2="330" stroke="#999" stroke-width="3" stroke-linecap="round"/><rect x="277" y="283" width="140" height="210" rx="0" fill="none" stroke="#111" stroke-width="4"/><circle cx="392" cy="394" r="5" fill="#111" stroke="#111" stroke-width="4"/><text x="162" y="306" font-family="Arial, Apple SD Gothic Neo, Noto Sans KR, sans-serif" font-size="38" font-weight="950" fill="#111" text-anchor="start"><tspan x="162" dy="0">HALL</tspan></text><text x="70" y="420" font-family="Arial, Apple SD Gothic Neo, Noto Sans KR, sans-serif" font-size="20" font-weight="950" fill="#f4f4f5" text-anchor="start"><tspan x="70" dy="0">복도 / 현관 SETUP</tspan></text><text x="70" y="446" font-family="Arial, Apple SD Gothic Neo, Noto Sans KR, sans-serif" font-size="14" font-weight="950" fill="#737373" text-anchor="start"><tspan x="70" dy="0">STORYBOARD FRAME</tspan></text><rect x="676" y="202" width="170" height="252" fill="transparent" stroke="#2b2b2b" stroke-width="2"/><text x="698" y="244" font-family="Arial, Apple SD Gothic Neo, Noto Sans KR, sans-serif" font-size="16" font-weight="950" fill="#737373" text-anchor="start"><tspan x="698" dy="0">시간</tspan></text><text x="698" y="288" font-family="Arial, Apple SD Gothic Neo, Noto Sans KR, sans-serif" font-size="27" font-weight="900" fill="#5ed7cf" text-anchor="start"><tspan x="698" dy="0">11:30 - 11:45</tspan><tspan x="698" dy="36">15분</tspan></text><rect x="846" y="202" width="235" height="252" fill="transparent" stroke="#2b2b2b" stroke-width="2"/><text x="868" y="244" font-family="Arial, Apple SD Gothic Neo, Noto Sans KR, sans-serif" font-size="16" font-weight="950" fill="#737373" text-anchor="start"><tspan x="868" dy="0">S# 및 컷</tspan></text><text x="868" y="288" font-family="Arial, Apple SD Gothic Neo, Noto Sans KR, sans-serif" font-size="21" font-weight="900" fill="#f4f4f5" text-anchor="start"><tspan x="868" dy="0">현장 세팅</tspan></text><rect x="1081" y="202" width="280" height="252" fill="transparent" stroke="#2b2b2b" stroke-width="2"/><text x="1103" y="244" font-family="Arial, Apple SD Gothic Neo, Noto Sans KR, sans-serif" font-size="16" font-weight="950" fill="#737373" text-anchor="start"><tspan x="1103" dy="0">렌즈 및 앵글</tspan></text><text x="1103" y="288" font-family="Arial, Apple SD Gothic Neo, Noto Sans KR, sans-serif" font-size="21" font-weight="900" fill="#f4f4f5" text-anchor="start"><tspan x="1103" dy="0">-</tspan></text><rect x="1361" y="202" width="397" height="252" fill="transparent" stroke="#2b2b2b" stroke-width="2"/><text x="1383" y="244" font-family="Arial, Apple SD Gothic Neo, Noto Sans KR, sans-serif" font-size="16" font-weight="950" fill="#737373" text-anchor="start"><tspan x="1383" dy="0">내용 및 연출 포인트</tspan></text><text x="1383" y="288" font-family="Arial, Apple SD Gothic Neo, Noto Sans KR, sans-serif" font-size="22" font-weight="900" fill="#f4f4f5" text-anchor="start"><tspan x="1383" dy="0">실내외 노출 차이에 주의하여 조명과 카메라 세팅.</tspan></text><rect x="42" y="454" width="1716" height="252" fill="#101010" stroke="#2b2b2b" stroke-width="2"/><rect x="70" y="480" width="554" height="156" rx="18" fill="#fbfbfb" stroke="#e5e5e5" stroke-width="3"/><rect x="86" y="496" width="522" height="124" rx="8" fill="none" stroke="#111" stroke-width="3"/><line x1="104" y1="582" x2="590" y2="582" stroke="#999" stroke-width="3" stroke-linecap="round"/><rect x="144" y="534" width="135" height="205" rx="0" fill="none" stroke="#111" stroke-width="4"/><circle cx="350" cy="637.6" r="9.1" fill="#fff" stroke="#111" stroke-width="2.8"/><line x1="350" y1="647.4" x2="350" y2="682.4" stroke="#111" stroke-width="2.8" stroke-linecap="round"/><line x1="350" y1="660" x2="333.2" y2="674" stroke="#111" stroke-width="4" stroke-linecap="round"/><line x1="350" y1="660" x2="366.8" y2="674" stroke="#111" stroke-width="4" stroke-linecap="round"/><line x1="350" y1="682.4" x2="337.4" y2="707.6" stroke="#111" stroke-width="4" stroke-linecap="round"/><line x1="350" y1="682.4" x2="362.6" y2="707.6" stroke="#111" stroke-width="4" stroke-linecap="round"/><circle cx="478" cy="584" r="36" fill="none" stroke="#111" stroke-width="4"/><line x1="478" y1="584" x2="478" y2="562" stroke="#111" stroke-width="4" stroke-linecap="round"/><line x1="478" y1="584" x2="500" y2="584" stroke="#111" stroke-width="4" stroke-linecap="round"/><circle cx="575" cy="634.96" r="9.36" fill="#fff" stroke="#111" stroke-width="2.88"/><line x1="575" y1="645.04" x2="575" y2="681.04" stroke="#111" stroke-width="2.88" stroke-linecap="round"/><line x1="575" y1="658" x2="554.84" y2="666.64" stroke="#111" stroke-width="4" stroke-linecap="round"/><line x1="575" y1="658" x2="598.04" y2="652.24" stroke="#111" stroke-width="4" stroke-linecap="round"/><line x1="575" y1="681.04" x2="557.72" y2="704.8" stroke="#111" stroke-width="4" stroke-linecap="round"/><line x1="575" y1="681.04" x2="600.92" y2="695.44" stroke="#111" stroke-width="4" stroke-linecap="round"/><text x="70" y="672" font-family="Arial, Apple SD Gothic Neo, Noto Sans KR, sans-serif" font-size="20" font-weight="950" fill="#f4f4f5" text-anchor="start"><tspan x="70" dy="0">문 앞 대기 / 뛰어 들어옴 / 팔로잉</tspan></text><text x="70" y="698" font-family="Arial, Apple SD Gothic Neo, Noto Sans KR, sans-serif" font-size="14" font-weight="950" fill="#737373" text-anchor="start"><tspan x="70" dy="0">STORYBOARD FRAME</tspan></text><rect x="676" y="454" width="170" height="252" fill="transparent" stroke="#2b2b2b" stroke-width="2"/><text x="698" y="496" font-family="Arial, Apple SD Gothic Neo, Noto Sans KR, sans-serif" font-size="16" font-weight="950" fill="#737373" text-anchor="start"><tspan x="698" dy="0">시간</tspan></text><text x="698" y="540" font-family="Arial, Apple SD Gothic Neo, Noto Sans KR, sans-serif" font-size="27" font-weight="900" fill="#5ed7cf" text-anchor="start"><tspan x="698" dy="0">11:45 - 12:45</tspan><tspan x="698" dy="36">60분</tspan></text><rect x="846" y="454" width="235" height="252" fill="transparent" stroke="#2b2b2b" stroke-width="2"/><text x="868" y="496" font-family="Arial, Apple SD Gothic Neo, Noto Sans KR, sans-serif" font-size="16" font-weight="950" fill="#737373" text-anchor="start"><tspan x="868" dy="0">S# 및 컷</tspan></text><text x="868" y="540" font-family="Arial, Apple SD Gothic Neo, Noto Sans KR, sans-serif" font-size="21" font-weight="900" fill="#f4f4f5" text-anchor="start"><tspan x="868" dy="0">S# 3B-3E / S#</tspan><tspan x="868" dy="31">10A-10E / S#</tspan><tspan x="868" dy="31">19A, 19B</tspan></text><rect x="1081" y="454" width="280" height="252" fill="transparent" stroke="#2b2b2b" stroke-width="2"/><text x="1103" y="496" font-family="Arial, Apple SD Gothic Neo, Noto Sans KR, sans-serif" font-size="16" font-weight="950" fill="#737373" text-anchor="start"><tspan x="1103" dy="0">렌즈 및 앵글</tspan></text><text x="1103" y="540" font-family="Arial, Apple SD Gothic Neo, Noto Sans KR, sans-serif" font-size="21" font-weight="900" fill="#f4f4f5" text-anchor="start"><tspan x="1103" dy="0">24-70mm / 픽스·트래킹 /</tspan><tspan x="1103" dy="31">High·Eye</tspan></text><rect x="1361" y="454" width="397" height="252" fill="transparent" stroke="#2b2b2b" stroke-width="2"/><text x="1383" y="496" font-family="Arial, Apple SD Gothic Neo, Noto Sans KR, sans-serif" font-size="16" font-weight="950" fill="#737373" text-anchor="start"><tspan x="1383" dy="0">내용 및 연출 포인트</tspan></text><text x="1383" y="540" font-family="Arial, Apple SD Gothic Neo, Noto Sans KR, sans-serif" font-size="22" font-weight="900" fill="#f4f4f5" text-anchor="start"><tspan x="1383" dy="0">나가는 씬, 오후 3시 헐레벌떡 들어와 알람 끄는 씬, 문밖에서</tspan><tspan x="1383" dy="31">시간 맞춰 대기하는 씬 몰아찍기.</tspan></text><rect x="42" y="706" width="1716" height="252" fill="#171717" stroke="#2b2b2b" stroke-width="2"/><rect x="70" y="732" width="554" height="156" rx="18" fill="#fbfbfb" stroke="#e5e5e5" stroke-width="3"/><rect x="86" y="748" width="522" height="124" rx="8" fill="none" stroke="#111" stroke-width="3"/><line x1="140" y1="972" x2="570" y2="848" stroke="#111" stroke-width="5" stroke-linecap="round"/><line x1="182" y1="960" x2="610" y2="836" stroke="#111" stroke-width="5" stroke-linecap="round"/><line x1="162" y1="964" x2="202" y2="952" stroke="#999" stroke-width="3" stroke-linecap="round"/><line x1="244" y1="940" x2="284" y2="928" stroke="#999" stroke-width="3" stroke-linecap="round"/><line x1="326" y1="916" x2="366" y2="904" stroke="#999" stroke-width="3" stroke-linecap="round"/><line x1="408" y1="892" x2="448" y2="880" stroke="#999" stroke-width="3" stroke-linecap="round"/><line x1="490" y1="868" x2="530" y2="856" stroke="#999" stroke-width="3" stroke-linecap="round"/><circle cx="347" cy="798.76" r="10.66" fill="#fff" stroke="#111" stroke-width="3.28"/><line x1="347" y1="810.24" x2="347" y2="851.24" stroke="#111" stroke-width="3.28" stroke-linecap="round"/><line x1="347" y1="825" x2="324.04" y2="834.84" stroke="#111" stroke-width="4" stroke-linecap="round"/><line x1="347" y1="825" x2="373.24" y2="818.44" stroke="#111" stroke-width="4" stroke-linecap="round"/><line x1="347" y1="851.24" x2="327.32" y2="878.3" stroke="#111" stroke-width="4" stroke-linecap="round"/><line x1="347" y1="851.24" x2="376.52" y2="867.64" stroke="#111" stroke-width="4" stroke-linecap="round"/><text x="144" y="814" font-family="Arial, Apple SD Gothic Neo, Noto Sans KR, sans-serif" font-size="34" font-weight="950" fill="#111" text-anchor="start"><tspan x="144" dy="0">12mm</tspan></text><text x="70" y="924" font-family="Arial, Apple SD Gothic Neo, Noto Sans KR, sans-serif" font-size="20" font-weight="950" fill="#f4f4f5" text-anchor="start"><tspan x="70" dy="0">계단 질주 / 떨리는 손</tspan></text><text x="70" y="950" font-family="Arial, Apple SD Gothic Neo, Noto Sans KR, sans-serif" font-size="14" font-weight="950" fill="#737373" text-anchor="start"><tspan x="70" dy="0">STORYBOARD FRAME</tspan></text><rect x="676" y="706" width="170" height="252" fill="transparent" stroke="#2b2b2b" stroke-width="2"/><text x="698" y="748" font-family="Arial, Apple SD Gothic Neo, Noto Sans KR, sans-serif" font-size="16" font-weight="950" fill="#737373" text-anchor="start"><tspan x="698" dy="0">시간</tspan></text><text x="698" y="792" font-family="Arial, Apple SD Gothic Neo, Noto Sans KR, sans-serif" font-size="27" font-weight="900" fill="#5ed7cf" text-anchor="start"><tspan x="698" dy="0">12:45 - 13:30</tspan><tspan x="698" dy="36">45분</tspan></text><rect x="846" y="706" width="235" height="252" fill="transparent" stroke="#2b2b2b" stroke-width="2"/><text x="868" y="748" font-family="Arial, Apple SD Gothic Neo, Noto Sans KR, sans-serif" font-size="16" font-weight="950" fill="#737373" text-anchor="start"><tspan x="868" dy="0">S# 및 컷</tspan></text><text x="868" y="792" font-family="Arial, Apple SD Gothic Neo, Noto Sans KR, sans-serif" font-size="21" font-weight="900" fill="#f4f4f5" text-anchor="start"><tspan x="868" dy="0">S# 9A-9D</tspan></text><rect x="1081" y="706" width="280" height="252" fill="transparent" stroke="#2b2b2b" stroke-width="2"/><text x="1103" y="748" font-family="Arial, Apple SD Gothic Neo, Noto Sans KR, sans-serif" font-size="16" font-weight="950" fill="#737373" text-anchor="start"><tspan x="1103" dy="0">렌즈 및 앵글</tspan></text><text x="1103" y="792" font-family="Arial, Apple SD Gothic Neo, Noto Sans KR, sans-serif" font-size="21" font-weight="900" fill="#f4f4f5" text-anchor="start"><tspan x="1103" dy="0">12-24mm / 핸드헬드 /</tspan><tspan x="1103" dy="31">MS·CU</tspan></text><rect x="1361" y="706" width="397" height="252" fill="transparent" stroke="#2b2b2b" stroke-width="2"/><text x="1383" y="748" font-family="Arial, Apple SD Gothic Neo, Noto Sans KR, sans-serif" font-size="16" font-weight="950" fill="#737373" text-anchor="start"><tspan x="1383" dy="0">내용 및 연출 포인트</tspan></text><text x="1383" y="792" font-family="Arial, Apple SD Gothic Neo, Noto Sans KR, sans-serif" font-size="22" font-weight="900" fill="#f4f4f5" text-anchor="start"><tspan x="1383" dy="0">계단 두 칸씩 뛰어오르는 역동적인 샷. 숨 가쁜 느낌을 위해</tspan><tspan x="1383" dy="31">렌즈를 바짝 붙이기.</tspan></text><rect x="42" y="958" width="1716" height="252" fill="#101010" stroke="#2b2b2b" stroke-width="2"/><rect x="70" y="984" width="554" height="156" rx="18" fill="#fbfbfb" stroke="#e5e5e5" stroke-width="3"/><rect x="86" y="1000" width="522" height="124" rx="8" fill="none" stroke="#111" stroke-width="3"/><line x1="104" y1="1086" x2="590" y2="1086" stroke="#999" stroke-width="3" stroke-linecap="round"/><circle cx="287" cy="1062" r="40" fill="none" stroke="#111" stroke-width="4"/><line x1="242" y1="1062" x2="332" y2="1062" stroke="#111" stroke-width="4" stroke-linecap="round"/><line x1="385" y1="1062" x2="492" y2="1062" stroke="#111" stroke-width="4" stroke-linecap="round"/><line x1="459" y1="1038" x2="492" y2="1062" stroke="#111" stroke-width="4" stroke-linecap="round"/><line x1="459" y1="1086" x2="492" y2="1062" stroke="#111" stroke-width="4" stroke-linecap="round"/><text x="347" y="1214" font-family="Arial, Apple SD Gothic Neo, Noto Sans KR, sans-serif" font-size="34" font-weight="950" fill="#111" text-anchor="middle"><tspan x="347" dy="0">LUNCH / MOVE</tspan></text><text x="70" y="1176" font-family="Arial, Apple SD Gothic Neo, Noto Sans KR, sans-serif" font-size="20" font-weight="950" fill="#f4f4f5" text-anchor="start"><tspan x="70" dy="0">점심 식사 / 야외 이동</tspan></text><text x="70" y="1202" font-family="Arial, Apple SD Gothic Neo, Noto Sans KR, sans-serif" font-size="14" font-weight="950" fill="#737373" text-anchor="start"><tspan x="70" dy="0">STORYBOARD FRAME</tspan></text><rect x="676" y="958" width="170" height="252" fill="transparent" stroke="#2b2b2b" stroke-width="2"/><text x="698" y="1000" font-family="Arial, Apple SD Gothic Neo, Noto Sans KR, sans-serif" font-size="16" font-weight="950" fill="#737373" text-anchor="start"><tspan x="698" dy="0">시간</tspan></text><text x="698" y="1044" font-family="Arial, Apple SD Gothic Neo, Noto Sans KR, sans-serif" font-size="27" font-weight="900" fill="#5ed7cf" text-anchor="start"><tspan x="698" dy="0">13:30 - 14:30</tspan><tspan x="698" dy="36">60분</tspan></text><rect x="846" y="958" width="235" height="252" fill="transparent" stroke="#2b2b2b" stroke-width="2"/><text x="868" y="1000" font-family="Arial, Apple SD Gothic Neo, Noto Sans KR, sans-serif" font-size="16" font-weight="950" fill="#737373" text-anchor="start"><tspan x="868" dy="0">S# 및 컷</tspan></text><text x="868" y="1044" font-family="Arial, Apple SD Gothic Neo, Noto Sans KR, sans-serif" font-size="21" font-weight="900" fill="#f4f4f5" text-anchor="start"><tspan x="868" dy="0">점심 / 이동</tspan></text><rect x="1081" y="958" width="280" height="252" fill="transparent" stroke="#2b2b2b" stroke-width="2"/><text x="1103" y="1000" font-family="Arial, Apple SD Gothic Neo, Noto Sans KR, sans-serif" font-size="16" font-weight="950" fill="#737373" text-anchor="start"><tspan x="1103" dy="0">렌즈 및 앵글</tspan></text><text x="1103" y="1044" font-family="Arial, Apple SD Gothic Neo, Noto Sans KR, sans-serif" font-size="21" font-weight="900" fill="#f4f4f5" text-anchor="start"><tspan x="1103" dy="0">-</tspan></text><rect x="1361" y="958" width="397" height="252" fill="transparent" stroke="#2b2b2b" stroke-width="2"/><text x="1383" y="1000" font-family="Arial, Apple SD Gothic Neo, Noto Sans KR, sans-serif" font-size="16" font-weight="950" fill="#737373" text-anchor="start"><tspan x="1383" dy="0">내용 및 연출 포인트</tspan></text><text x="1383" y="1044" font-family="Arial, Apple SD Gothic Neo, Noto Sans KR, sans-serif" font-size="22" font-weight="900" fill="#f4f4f5" text-anchor="start"><tspan x="1383" dy="0">점심 식사 및 로케이션 이동·세팅</tspan></text></svg>