<svg xmlns="http://www.w3.org/2000/svg" width="1800" height="1974" viewBox="0 0 1800 1974"><rect width="1800" height="1974" fill="#0b0b0b"/><rect x="42" y="42" width="1716" height="1890" rx="28" fill="#121212" stroke="#2b2b2b" stroke-width="2"/><rect x="42" y="42" width="1716" height="142" rx="28" fill="#132321"/><text x="74" y="88" font-family="Arial, Apple SD Gothic Neo, Noto Sans KR, sans-serif" font-size="24" font-weight="950" fill="#5ed7cf" text-anchor="start"><tspan x="74" dy="0">BLOCK 5</tspan></text><text x="74" y="137" font-family="Arial, Apple SD Gothic Neo, Noto Sans KR, sans-serif" font-size="48" font-weight="950" fill="#ffffff" text-anchor="start"><tspan x="74" dy="0">야간 침실 &amp; 메인 폭발</tspan></text><text x="74" y="174" font-family="Arial, Apple SD Gothic Neo, Noto Sans KR, sans-serif" font-size="22" font-weight="800" fill="#a3a3a3" text-anchor="start"><tspan x="74" dy="0">일상 씬 다 털어낸 후, 마지막에 방을 난장판으로 만들며 에너지 폭발.</tspan></text><rect x="1428" y="80" width="290" height="54" rx="27" fill="rgba(94,215,207,0.10)" stroke="rgba(94,215,207,0.45)" stroke-width="2"/><text x="1573" y="115" font-family="Arial, Apple SD Gothic Neo, Noto Sans KR, sans-serif" font-size="19" font-weight="950" fill="#5ed7cf" text-anchor="middle"><tspan x="1573" dy="0">FX3 저조도 / 극단적 광각</tspan></text><rect x="42" y="202" width="1716" height="252" fill="#171717" stroke="#2b2b2b" stroke-width="2"/><rect x="70" y="228" width="554" height="156" rx="18" fill="#fbfbfb" stroke="#e5e5e5" stroke-width="3"/><rect x="86" y="244" width="522" height="124" rx="8" fill="none" stroke="#111" stroke-width="3"/><rect x="150" y="283" width="170" height="150" rx="0" fill="none" stroke="#111" stroke-width="4"/><line x1="150" y1="338" x2="320" y2="338" stroke="#111" stroke-width="4" stroke-linecap="round"/><line x1="235" y1="283" x2="235" y2="433" stroke="#111" stroke-width="4" stroke-linecap="round"/><circle cx="480" cy="333" r="36" fill="none" stroke="#111" stroke-width="4"/><line x1="480" y1="369" x2="480" y2="466" stroke="#111" stroke-width="4" stroke-linecap="round"/><line x1="410" y1="323" x2="345" y2="298" stroke="#999" stroke-width="3" stroke-linecap="round"/><line x1="410" y1="346" x2="345" y2="354" stroke="#999" stroke-width="3" stroke-linecap="round"/><text x="70" y="420" font-family="Arial, Apple SD Gothic Neo, Noto Sans KR, sans-serif" font-size="20" font-weight="950" fill="#f4f4f5" text-anchor="start"><tspan x="70" dy="0">실내 암막 / 조명</tspan></text><text x="70" y="446" font-family="Arial, Apple SD Gothic Neo, Noto Sans KR, sans-serif" font-size="14" font-weight="950" fill="#737373" text-anchor="start"><tspan x="70" dy="0">STORYBOARD FRAME</tspan></text><rect x="676" y="202" width="170" height="252" fill="transparent" stroke="#2b2b2b" stroke-width="2"/><text x="698" y="244" font-family="Arial, Apple SD Gothic Neo, Noto Sans KR, sans-serif" font-size="16" font-weight="950" fill="#737373" text-anchor="start"><tspan x="698" dy="0">시간</tspan></text><text x="698" y="288" font-family="Arial, Apple SD Gothic Neo, Noto Sans KR, sans-serif" font-size="27" font-weight="900" fill="#5ed7cf" text-anchor="start"><tspan x="698" dy="0">18:30 - 19:00</tspan><tspan x="698" dy="36">30분</tspan></text><rect x="846" y="202" width="235" height="252" fill="transparent" stroke="#2b2b2b" stroke-width="2"/><text x="868" y="244" font-family="Arial, Apple SD Gothic Neo, Noto Sans KR, sans-serif" font-size="16" font-weight="950" fill="#737373" text-anchor="start"><tspan x="868" dy="0">S# 및 컷</tspan></text><text x="868" y="288" font-family="Arial, Apple SD Gothic Neo, Noto Sans KR, sans-serif" font-size="21" font-weight="900" fill="#f4f4f5" text-anchor="start"><tspan x="868" dy="0">야간 조명 셋업</tspan></text><rect x="1081" y="202" width="280" height="252" fill="transparent" stroke="#2b2b2b" stroke-width="2"/><text x="1103" y="244" font-family="Arial, Apple SD Gothic Neo, Noto Sans KR, sans-serif" font-size="16" font-weight="950" fill="#737373" text-anchor="start"><tspan x="1103" dy="0">렌즈 및 앵글</tspan></text><text x="1103" y="288" font-family="Arial, Apple SD Gothic Neo, Noto Sans KR, sans-serif" font-size="21" font-weight="900" fill="#f4f4f5" text-anchor="start"><tspan x="1103" dy="0">-</tspan></text><rect x="1361" y="202" width="397" height="252" fill="transparent" stroke="#2b2b2b" stroke-width="2"/><text x="1383" y="244" font-family="Arial, Apple SD Gothic Neo, Noto Sans KR, sans-serif" font-size="16" font-weight="950" fill="#737373" text-anchor="start"><tspan x="1383" dy="0">내용 및 연출 포인트</tspan></text><text x="1383" y="288" font-family="Arial, Apple SD Gothic Neo, Noto Sans KR, sans-serif" font-size="22" font-weight="900" fill="#f4f4f5" text-anchor="start"><tspan x="1383" dy="0">창밖 어두운 룩, 방 안 기본조명 세팅.</tspan></text><rect x="42" y="454" width="1716" height="252" fill="#101010" stroke="#2b2b2b" stroke-width="2"/><rect x="70" y="480" width="554" height="156" rx="18" fill="#fbfbfb" stroke="#e5e5e5" stroke-width="3"/><rect x="86" y="496" width="522" height="124" rx="8" fill="none" stroke="#111" stroke-width="3"/><rect x="140" y="634" width="210" height="76" rx="0" fill="none" stroke="#111" stroke-width="4"/><circle cx="200" cy="625" r="22" fill="none" stroke="#111" stroke-width="4"/><line x1="220" y1="630" x2="300" y2="670" stroke="#111" stroke-width="4" stroke-linecap="round"/><rect x="440" y="556" width="92" height="120" rx="0" fill="none" stroke="#111" stroke-width="4"/><line x1="532" y1="556" x2="578" y2="576" stroke="#111" stroke-width="4" stroke-linecap="round"/><circle cx="570" cy="649.44" r="7.539999999999999" fill="#fff" stroke="#111" stroke-width="2.32"/><line x1="570" y1="657.56" x2="570" y2="686.56" stroke="#111" stroke-width="2.32" stroke-linecap="round"/><line x1="570" y1="668" x2="556.08" y2="679.6" stroke="#111" stroke-width="4" stroke-linecap="round"/><line x1="570" y1="668" x2="583.92" y2="679.6" stroke="#111" stroke-width="4" stroke-linecap="round"/><line x1="570" y1="686.56" x2="559.56" y2="707.44" stroke="#111" stroke-width="4" stroke-linecap="round"/><line x1="570" y1="686.56" x2="580.44" y2="707.44" stroke="#111" stroke-width="4" stroke-linecap="round"/><text x="70" y="672" font-family="Arial, Apple SD Gothic Neo, Noto Sans KR, sans-serif" font-size="20" font-weight="950" fill="#f4f4f5" text-anchor="start"><tspan x="70" dy="0">침대 통화 / 현관 진입 / 기상 탑뷰</tspan></text><text x="70" y="698" font-family="Arial, Apple SD Gothic Neo, Noto Sans KR, sans-serif" font-size="14" font-weight="950" fill="#737373" text-anchor="start"><tspan x="70" dy="0">STORYBOARD FRAME</tspan></text><rect x="676" y="454" width="170" height="252" fill="transparent" stroke="#2b2b2b" stroke-width="2"/><text x="698" y="496" font-family="Arial, Apple SD Gothic Neo, Noto Sans KR, sans-serif" font-size="16" font-weight="950" fill="#737373" text-anchor="start"><tspan x="698" dy="0">시간</tspan></text><text x="698" y="540" font-family="Arial, Apple SD Gothic Neo, Noto Sans KR, sans-serif" font-size="27" font-weight="900" fill="#5ed7cf" text-anchor="start"><tspan x="698" dy="0">19:00 - 20:30</tspan><tspan x="698" dy="36">90분</tspan></text><rect x="846" y="454" width="235" height="252" fill="transparent" stroke="#2b2b2b" stroke-width="2"/><text x="868" y="496" font-family="Arial, Apple SD Gothic Neo, Noto Sans KR, sans-serif" font-size="16" font-weight="950" fill="#737373" text-anchor="start"><tspan x="868" dy="0">S# 및 컷</tspan></text><text x="868" y="540" font-family="Arial, Apple SD Gothic Neo, Noto Sans KR, sans-serif" font-size="21" font-weight="900" fill="#f4f4f5" text-anchor="start"><tspan x="868" dy="0">S# 11, 20 / S#</tspan><tspan x="868" dy="31">1, 12, 31</tspan></text><rect x="1081" y="454" width="280" height="252" fill="transparent" stroke="#2b2b2b" stroke-width="2"/><text x="1103" y="496" font-family="Arial, Apple SD Gothic Neo, Noto Sans KR, sans-serif" font-size="16" font-weight="950" fill="#737373" text-anchor="start"><tspan x="1103" dy="0">렌즈 및 앵글</tspan></text><text x="1103" y="540" font-family="Arial, Apple SD Gothic Neo, Noto Sans KR, sans-serif" font-size="21" font-weight="900" fill="#f4f4f5" text-anchor="start"><tspan x="1103" dy="0">24-70mm / 픽스·팬 /</tspan><tspan x="1103" dy="31">다양한 앵글</tspan></text><rect x="1361" y="454" width="397" height="252" fill="transparent" stroke="#2b2b2b" stroke-width="2"/><text x="1383" y="496" font-family="Arial, Apple SD Gothic Neo, Noto Sans KR, sans-serif" font-size="16" font-weight="950" fill="#737373" text-anchor="start"><tspan x="1383" dy="0">내용 및 연출 포인트</tspan></text><text x="1383" y="540" font-family="Arial, Apple SD Gothic Neo, Noto Sans KR, sans-serif" font-size="22" font-weight="900" fill="#f4f4f5" text-anchor="start"><tspan x="1383" dy="0">창문 환기, 야간 통화, 기상 씬 등 침실에서 할 수 있는 차분한</tspan><tspan x="1383" dy="31">일상 컷 클리어.</tspan></text><rect x="42" y="706" width="1716" height="252" fill="#171717" stroke="#2b2b2b" stroke-width="2"/><rect x="70" y="732" width="554" height="156" rx="18" fill="#fbfbfb" stroke="#e5e5e5" stroke-width="3"/><rect x="86" y="748" width="522" height="124" rx="8" fill="none" stroke="#111" stroke-width="3"/><rect x="249" y="848" width="196" height="88" rx="0" fill="none" stroke="#111" stroke-width="4"/><rect x="279" y="802" width="136" height="70" rx="0" fill="none" stroke="#111" stroke-width="4"/><line x1="297" y1="828" x2="397" y2="828" stroke="#111" stroke-width="4" stroke-linecap="round"/><circle cx="235" cy="893.96" r="9.36" fill="#fff" stroke="#111" stroke-width="2.88"/><line x1="235" y1="904.04" x2="235" y2="940.04" stroke="#111" stroke-width="2.88" stroke-linecap="round"/><line x1="235" y1="917" x2="217.72" y2="931.4" stroke="#111" stroke-width="4" stroke-linecap="round"/><line x1="235" y1="917" x2="252.28" y2="931.4" stroke="#111" stroke-width="4" stroke-linecap="round"/><line x1="235" y1="940.04" x2="222.04" y2="965.96" stroke="#111" stroke-width="4" stroke-linecap="round"/><line x1="235" y1="940.04" x2="247.96" y2="965.96" stroke="#111" stroke-width="4" stroke-linecap="round"/><line x1="188" y1="814" x2="208" y2="794" stroke="#111" stroke-width="5" stroke-linecap="round"/><line x1="218" y1="804" x2="246" y2="784" stroke="#111" stroke-width="4" stroke-linecap="round"/><text x="532" y="960" font-family="Arial, Apple SD Gothic Neo, Noto Sans KR, sans-serif" font-size="31" font-weight="950" fill="#111" text-anchor="middle"><tspan x="532" dy="0">PANIC</tspan></text><text x="70" y="924" font-family="Arial, Apple SD Gothic Neo, Noto Sans KR, sans-serif" font-size="20" font-weight="950" fill="#f4f4f5" text-anchor="start"><tspan x="70" dy="0">무한 출력 / 떨리는 동공과 손</tspan></text><text x="70" y="950" font-family="Arial, Apple SD Gothic Neo, Noto Sans KR, sans-serif" font-size="14" font-weight="950" fill="#737373" text-anchor="start"><tspan x="70" dy="0">STORYBOARD FRAME</tspan></text><rect x="676" y="706" width="170" height="252" fill="transparent" stroke="#2b2b2b" stroke-width="2"/><text x="698" y="748" font-family="Arial, Apple SD Gothic Neo, Noto Sans KR, sans-serif" font-size="16" font-weight="950" fill="#737373" text-anchor="start"><tspan x="698" dy="0">시간</tspan></text><text x="698" y="792" font-family="Arial, Apple SD Gothic Neo, Noto Sans KR, sans-serif" font-size="27" font-weight="900" fill="#5ed7cf" text-anchor="start"><tspan x="698" dy="0">20:30 - 21:00</tspan><tspan x="698" dy="36">30분</tspan></text><rect x="846" y="706" width="235" height="252" fill="transparent" stroke="#2b2b2b" stroke-width="2"/><text x="868" y="748" font-family="Arial, Apple SD Gothic Neo, Noto Sans KR, sans-serif" font-size="16" font-weight="950" fill="#737373" text-anchor="start"><tspan x="868" dy="0">S# 및 컷</tspan></text><text x="868" y="792" font-family="Arial, Apple SD Gothic Neo, Noto Sans KR, sans-serif" font-size="21" font-weight="900" fill="#f4f4f5" text-anchor="start"><tspan x="868" dy="0">S# 21A-21F</tspan></text><rect x="1081" y="706" width="280" height="252" fill="transparent" stroke="#2b2b2b" stroke-width="2"/><text x="1103" y="748" font-family="Arial, Apple SD Gothic Neo, Noto Sans KR, sans-serif" font-size="16" font-weight="950" fill="#737373" text-anchor="start"><tspan x="1103" dy="0">렌즈 및 앵글</tspan></text><text x="1103" y="792" font-family="Arial, Apple SD Gothic Neo, Noto Sans KR, sans-serif" font-size="21" font-weight="900" fill="#f4f4f5" text-anchor="start"><tspan x="1103" dy="0">70-200mm / 픽스 /</tspan><tspan x="1103" dy="31">CU·MCU</tspan></text><rect x="1361" y="706" width="397" height="252" fill="transparent" stroke="#2b2b2b" stroke-width="2"/><text x="1383" y="748" font-family="Arial, Apple SD Gothic Neo, Noto Sans KR, sans-serif" font-size="16" font-weight="950" fill="#737373" text-anchor="start"><tspan x="1383" dy="0">내용 및 연출 포인트</tspan></text><text x="1383" y="792" font-family="Arial, Apple SD Gothic Neo, Noto Sans KR, sans-serif" font-size="22" font-weight="900" fill="#f4f4f5" text-anchor="start"><tspan x="1383" dy="0">매뉴얼이 다시 출력되며 패닉에 빠지는 타이트 샷. 미세한 떨림을</tspan><tspan x="1383" dy="31">극대화하여 텐션업.</tspan></text><rect x="42" y="958" width="1716" height="252" fill="#101010" stroke="#2b2b2b" stroke-width="2"/><rect x="70" y="984" width="554" height="156" rx="18" fill="#fbfbfb" stroke="#e5e5e5" stroke-width="3"/><rect x="86" y="1000" width="522" height="124" rx="8" fill="none" stroke="#111" stroke-width="3"/><rect x="247" y="1104" width="200" height="92" rx="0" fill="none" stroke="#111" stroke-width="4"/><line x1="277" y1="1080" x2="417" y2="1080" stroke="#111" stroke-width="4" stroke-linecap="round"/><line x1="255" y1="1228" x2="439" y2="1228" stroke="#111" stroke-width="5" stroke-linecap="round"/><line x1="255" y1="1228" x2="227" y2="1256" stroke="#111" stroke-width="4" stroke-linecap="round"/><line x1="439" y1="1228" x2="467" y2="1256" stroke="#111" stroke-width="4" stroke-linecap="round"/><text x="347" y="1060" font-family="Arial, Apple SD Gothic Neo, Noto Sans KR, sans-serif" font-size="38" font-weight="950" fill="#111" text-anchor="middle"><tspan x="347" dy="0">SAFETY</tspan></text><text x="70" y="1176" font-family="Arial, Apple SD Gothic Neo, Noto Sans KR, sans-serif" font-size="20" font-weight="950" fill="#f4f4f5" text-anchor="start"><tspan x="70" dy="0">더미 프린터 / 안전 구역</tspan></text><text x="70" y="1202" font-family="Arial, Apple SD Gothic Neo, Noto Sans KR, sans-serif" font-size="14" font-weight="950" fill="#737373" text-anchor="start"><tspan x="70" dy="0">STORYBOARD FRAME</tspan></text><rect x="676" y="958" width="170" height="252" fill="transparent" stroke="#2b2b2b" stroke-width="2"/><text x="698" y="1000" font-family="Arial, Apple SD Gothic Neo, Noto Sans KR, sans-serif" font-size="16" font-weight="950" fill="#737373" text-anchor="start"><tspan x="698" dy="0">시간</tspan></text><text x="698" y="1044" font-family="Arial, Apple SD Gothic Neo, Noto Sans KR, sans-serif" font-size="27" font-weight="900" fill="#5ed7cf" text-anchor="start"><tspan x="698" dy="0">21:00 - 21:20</tspan><tspan x="698" dy="36">20분</tspan></text><rect x="846" y="958" width="235" height="252" fill="transparent" stroke="#2b2b2b" stroke-width="2"/><text x="868" y="1000" font-family="Arial, Apple SD Gothic Neo, Noto Sans KR, sans-serif" font-size="16" font-weight="950" fill="#737373" text-anchor="start"><tspan x="868" dy="0">S# 및 컷</tspan></text><text x="868" y="1044" font-family="Arial, Apple SD Gothic Neo, Noto Sans KR, sans-serif" font-size="21" font-weight="900" fill="#f4f4f5" text-anchor="start"><tspan x="868" dy="0">파괴 셋업</tspan></text><rect x="1081" y="958" width="280" height="252" fill="transparent" stroke="#2b2b2b" stroke-width="2"/><text x="1103" y="1000" font-family="Arial, Apple SD Gothic Neo, Noto Sans KR, sans-serif" font-size="16" font-weight="950" fill="#737373" text-anchor="start"><tspan x="1103" dy="0">렌즈 및 앵글</tspan></text><text x="1103" y="1044" font-family="Arial, Apple SD Gothic Neo, Noto Sans KR, sans-serif" font-size="21" font-weight="900" fill="#f4f4f5" text-anchor="start"><tspan x="1103" dy="0">-</tspan></text><rect x="1361" y="958" width="397" height="252" fill="transparent" stroke="#2b2b2b" stroke-width="2"/><text x="1383" y="1000" font-family="Arial, Apple SD Gothic Neo, Noto Sans KR, sans-serif" font-size="16" font-weight="950" fill="#737373" text-anchor="start"><tspan x="1383" dy="0">내용 및 연출 포인트</tspan></text><text x="1383" y="1044" font-family="Arial, Apple SD Gothic Neo, Noto Sans KR, sans-serif" font-size="22" font-weight="900" fill="#f4f4f5" text-anchor="start"><tspan x="1383" dy="0">파괴될 프린터 더미 세팅, 안전 구역 확보.</tspan></text><rect x="42" y="1210" width="1716" height="252" fill="#171717" stroke="#2b2b2b" stroke-width="2"/><rect x="70" y="1236" width="554" height="156" rx="18" fill="#fbfbfb" stroke="#e5e5e5" stroke-width="3"/><rect x="86" y="1252" width="522" height="124" rx="8" fill="none" stroke="#111" stroke-width="3"/><rect x="242" y="1410" width="210" height="56" rx="0" fill="none" stroke="#111" stroke-width="4"/><circle cx="337" cy="1357.2" r="11.700000000000001" fill="#fff" stroke="#111" stroke-width="3.6"/><line x1="337" y1="1369.8" x2="356.8" y2="1404" stroke="#111" stroke-width="4" stroke-linecap="round"/><line x1="356.8" y1="1404" x2="377.5" y2="1416.6" stroke="#111" stroke-width="4" stroke-linecap="round"/><line x1="347.8" y1="1395" x2="320.8" y2="1417.5" stroke="#111" stroke-width="4" stroke-linecap="round"/><line x1="355" y1="1411.2" x2="338.8" y2="1447.2" stroke="#111" stroke-width="4" stroke-linecap="round"/><line x1="355" y1="1411.2" x2="383.8" y2="1440" stroke="#111" stroke-width="4" stroke-linecap="round"/><line x1="387" y1="1322" x2="452" y2="1378" stroke="#111" stroke-width="8" stroke-linecap="round"/><line x1="443" y1="1370" x2="479" y2="1346" stroke="#111" stroke-width="8" stroke-linecap="round"/><line x1="217" y1="1460" x2="497" y2="1486" stroke="#999" stroke-width="4" stroke-linecap="round"/><line x1="168" y1="1330" x2="220" y2="1300" stroke="#111" stroke-width="4" stroke-linecap="round"/><line x1="518" y1="1324" x2="580" y2="1294" stroke="#111" stroke-width="4" stroke-linecap="round"/><text x="70" y="1428" font-family="Arial, Apple SD Gothic Neo, Noto Sans KR, sans-serif" font-size="20" font-weight="950" fill="#f4f4f5" text-anchor="start"><tspan x="70" dy="0">극단적 로우 / 광각 왜곡</tspan></text><text x="70" y="1454" font-family="Arial, Apple SD Gothic Neo, Noto Sans KR, sans-serif" font-size="14" font-weight="950" fill="#737373" text-anchor="start"><tspan x="70" dy="0">STORYBOARD FRAME</tspan></text><rect x="676" y="1210" width="170" height="252" fill="transparent" stroke="#2b2b2b" stroke-width="2"/><text x="698" y="1252" font-family="Arial, Apple SD Gothic Neo, Noto Sans KR, sans-serif" font-size="16" font-weight="950" fill="#737373" text-anchor="start"><tspan x="698" dy="0">시간</tspan></text><text x="698" y="1296" font-family="Arial, Apple SD Gothic Neo, Noto Sans KR, sans-serif" font-size="27" font-weight="900" fill="#5ed7cf" text-anchor="start"><tspan x="698" dy="0">21:20 - 22:00</tspan><tspan x="698" dy="36">40분</tspan></text><rect x="846" y="1210" width="235" height="252" fill="transparent" stroke="#2b2b2b" stroke-width="2"/><text x="868" y="1252" font-family="Arial, Apple SD Gothic Neo, Noto Sans KR, sans-serif" font-size="16" font-weight="950" fill="#737373" text-anchor="start"><tspan x="868" dy="0">S# 및 컷</tspan></text><text x="868" y="1296" font-family="Arial, Apple SD Gothic Neo, Noto Sans KR, sans-serif" font-size="21" font-weight="900" fill="#f4f4f5" text-anchor="start"><tspan x="868" dy="0">S# 32A-32K</tspan></text><rect x="1081" y="1210" width="280" height="252" fill="transparent" stroke="#2b2b2b" stroke-width="2"/><text x="1103" y="1252" font-family="Arial, Apple SD Gothic Neo, Noto Sans KR, sans-serif" font-size="16" font-weight="950" fill="#737373" text-anchor="start"><tspan x="1103" dy="0">렌즈 및 앵글</tspan></text><text x="1103" y="1296" font-family="Arial, Apple SD Gothic Neo, Noto Sans KR, sans-serif" font-size="21" font-weight="900" fill="#f4f4f5" text-anchor="start"><tspan x="1103" dy="0">12-24mm / 베이비 레그 /</tspan><tspan x="1103" dy="31">Extreme Low·HH</tspan></text><rect x="1361" y="1210" width="397" height="252" fill="transparent" stroke="#2b2b2b" stroke-width="2"/><text x="1383" y="1252" font-family="Arial, Apple SD Gothic Neo, Noto Sans KR, sans-serif" font-size="16" font-weight="950" fill="#737373" text-anchor="start"><tspan x="1383" dy="0">내용 및 연출 포인트</tspan></text><text x="1383" y="1296" font-family="Arial, Apple SD Gothic Neo, Noto Sans KR, sans-serif" font-size="22" font-weight="900" fill="#f4f4f5" text-anchor="start"><tspan x="1383" dy="0">메인 액션 씬. 바닥에 붙은 앵글에서 거칠게 부수는 씬. 카메라</tspan><tspan x="1383" dy="31">2대 동시 운용 필수.</tspan></text><rect x="42" y="1462" width="1716" height="252" fill="#101010" stroke="#2b2b2b" stroke-width="2"/><rect x="70" y="1488" width="554" height="156" rx="18" fill="#fbfbfb" stroke="#e5e5e5" stroke-width="3"/><rect x="86" y="1504" width="522" height="124" rx="8" fill="none" stroke="#111" stroke-width="3"/><rect x="148" y="1546" width="170" height="155" rx="0" fill="none" stroke="#111" stroke-width="4"/><line x1="148" y1="1598" x2="318" y2="1598" stroke="#111" stroke-width="4" stroke-linecap="round"/><line x1="233" y1="1546" x2="233" y2="1701" stroke="#111" stroke-width="4" stroke-linecap="round"/><line x1="332" y1="1556" x2="510" y2="1708" stroke="#999" stroke-width="4" stroke-linecap="round"/><line x1="370" y1="1550" x2="548" y2="1702" stroke="#bbb" stroke-width="4" stroke-linecap="round"/><rect x="267" y="1708" width="160" height="32" rx="0" fill="#fff" stroke="#111" stroke-width="3"/><text x="70" y="1680" font-family="Arial, Apple SD Gothic Neo, Noto Sans KR, sans-serif" font-size="20" font-weight="950" fill="#f4f4f5" text-anchor="start"><tspan x="70" dy="0">잔해 그대로 / 햇살 조명</tspan></text><text x="70" y="1706" font-family="Arial, Apple SD Gothic Neo, Noto Sans KR, sans-serif" font-size="14" font-weight="950" fill="#737373" text-anchor="start"><tspan x="70" dy="0">STORYBOARD FRAME</tspan></text><rect x="676" y="1462" width="170" height="252" fill="transparent" stroke="#2b2b2b" stroke-width="2"/><text x="698" y="1504" font-family="Arial, Apple SD Gothic Neo, Noto Sans KR, sans-serif" font-size="16" font-weight="950" fill="#737373" text-anchor="start"><tspan x="698" dy="0">시간</tspan></text><text x="698" y="1548" font-family="Arial, Apple SD Gothic Neo, Noto Sans KR, sans-serif" font-size="27" font-weight="900" fill="#5ed7cf" text-anchor="start"><tspan x="698" dy="0">22:00 - 22:10</tspan><tspan x="698" dy="36">10분</tspan></text><rect x="846" y="1462" width="235" height="252" fill="transparent" stroke="#2b2b2b" stroke-width="2"/><text x="868" y="1504" font-family="Arial, Apple SD Gothic Neo, Noto Sans KR, sans-serif" font-size="16" font-weight="950" fill="#737373" text-anchor="start"><tspan x="868" dy="0">S# 및 컷</tspan></text><text x="868" y="1548" font-family="Arial, Apple SD Gothic Neo, Noto Sans KR, sans-serif" font-size="21" font-weight="900" fill="#f4f4f5" text-anchor="start"><tspan x="868" dy="0">아침 룩 전환</tspan></text><rect x="1081" y="1462" width="280" height="252" fill="transparent" stroke="#2b2b2b" stroke-width="2"/><text x="1103" y="1504" font-family="Arial, Apple SD Gothic Neo, Noto Sans KR, sans-serif" font-size="16" font-weight="950" fill="#737373" text-anchor="start"><tspan x="1103" dy="0">렌즈 및 앵글</tspan></text><text x="1103" y="1548" font-family="Arial, Apple SD Gothic Neo, Noto Sans KR, sans-serif" font-size="21" font-weight="900" fill="#f4f4f5" text-anchor="start"><tspan x="1103" dy="0">-</tspan></text><rect x="1361" y="1462" width="397" height="252" fill="transparent" stroke="#2b2b2b" stroke-width="2"/><text x="1383" y="1504" font-family="Arial, Apple SD Gothic Neo, Noto Sans KR, sans-serif" font-size="16" font-weight="950" fill="#737373" text-anchor="start"><tspan x="1383" dy="0">내용 및 연출 포인트</tspan></text><text x="1383" y="1548" font-family="Arial, Apple SD Gothic Neo, Noto Sans KR, sans-serif" font-size="22" font-weight="900" fill="#f4f4f5" text-anchor="start"><tspan x="1383" dy="0">파괴된 잔해 그대로 두고, 아침 햇살 조명으로 전환.</tspan></text><rect x="42" y="1714" width="1716" height="252" fill="#171717" stroke="#2b2b2b" stroke-width="2"/><rect x="70" y="1740" width="554" height="156" rx="18" fill="#fbfbfb" stroke="#e5e5e5" stroke-width="3"/><rect x="86" y="1756" width="522" height="124" rx="8" fill="none" stroke="#111" stroke-width="3"/><rect x="148" y="1798" width="170" height="155" rx="0" fill="none" stroke="#111" stroke-width="4"/><line x1="332" y1="1808" x2="510" y2="1960" stroke="#bbb" stroke-width="4" stroke-linecap="round"/><line x1="197" y1="1986" x2="497" y2="1986" stroke="#111" stroke-width="4" stroke-linecap="round"/><line x1="295" y1="1926" x2="347" y2="1964" stroke="#111" stroke-width="5" stroke-linecap="round"/><line x1="399" y1="1926" x2="347" y2="1964" stroke="#111" stroke-width="5" stroke-linecap="round"/><line x1="295" y1="1926" x2="399" y2="1926" stroke="#111" stroke-width="5" stroke-linecap="round"/><line x1="347" y1="1964" x2="365" y2="1990" stroke="#111" stroke-width="4" stroke-linecap="round"/><text x="166" y="1988" font-family="Arial, Apple SD Gothic Neo, Noto Sans KR, sans-serif" font-size="32" font-weight="950" fill="#111" text-anchor="start"><tspan x="166" dy="0">END</tspan></text><text x="70" y="1932" font-family="Arial, Apple SD Gothic Neo, Noto Sans KR, sans-serif" font-size="20" font-weight="950" fill="#f4f4f5" text-anchor="start"><tspan x="70" dy="0">잔해 위 종이학 / 크랭크업</tspan></text><text x="70" y="1958" font-family="Arial, Apple SD Gothic Neo, Noto Sans KR, sans-serif" font-size="14" font-weight="950" fill="#737373" text-anchor="start"><tspan x="70" dy="0">STORYBOARD FRAME</tspan></text><rect x="676" y="1714" width="170" height="252" fill="transparent" stroke="#2b2b2b" stroke-width="2"/><text x="698" y="1756" font-family="Arial, Apple SD Gothic Neo, Noto Sans KR, sans-serif" font-size="16" font-weight="950" fill="#737373" text-anchor="start"><tspan x="698" dy="0">시간</tspan></text><text x="698" y="1800" font-family="Arial, Apple SD Gothic Neo, Noto Sans KR, sans-serif" font-size="27" font-weight="900" fill="#5ed7cf" text-anchor="start"><tspan x="698" dy="0">22:10 - 22:30</tspan><tspan x="698" dy="36">20분</tspan></text><rect x="846" y="1714" width="235" height="252" fill="transparent" stroke="#2b2b2b" stroke-width="2"/><text x="868" y="1756" font-family="Arial, Apple SD Gothic Neo, Noto Sans KR, sans-serif" font-size="16" font-weight="950" fill="#737373" text-anchor="start"><tspan x="868" dy="0">S# 및 컷</tspan></text><text x="868" y="1800" font-family="Arial, Apple SD Gothic Neo, Noto Sans KR, sans-serif" font-size="21" font-weight="900" fill="#f4f4f5" text-anchor="start"><tspan x="868" dy="0">S# 33A, 33B</tspan></text><rect x="1081" y="1714" width="280" height="252" fill="transparent" stroke="#2b2b2b" stroke-width="2"/><text x="1103" y="1756" font-family="Arial, Apple SD Gothic Neo, Noto Sans KR, sans-serif" font-size="16" font-weight="950" fill="#737373" text-anchor="start"><tspan x="1103" dy="0">렌즈 및 앵글</tspan></text><text x="1103" y="1800" font-family="Arial, Apple SD Gothic Neo, Noto Sans KR, sans-serif" font-size="21" font-weight="900" fill="#f4f4f5" text-anchor="start"><tspan x="1103" dy="0">24-70mm / 픽스</tspan></text><rect x="1361" y="1714" width="397" height="252" fill="transparent" stroke="#2b2b2b" stroke-width="2"/><text x="1383" y="1756" font-family="Arial, Apple SD Gothic Neo, Noto Sans KR, sans-serif" font-size="16" font-weight="950" fill="#737373" text-anchor="start"><tspan x="1383" dy="0">내용 및 연출 포인트</tspan></text><text x="1383" y="1800" font-family="Arial, Apple SD Gothic Neo, Noto Sans KR, sans-serif" font-size="22" font-weight="900" fill="#f4f4f5" text-anchor="start"><tspan x="1383" dy="0">부서진 잔해 위 평온한 아침, 종이학 인서트 후 크랭크업.</tspan></text></svg>